<svg class="recharts-surface" width="279" height="105" viewBox="0 0 279 105">
    <title></title>
    <desc></desc>
    <defs>
        <clipPath id="recharts1-clip">
            <rect x="0" y="20" height="85" width="279"></rect>
        </clipPath>
    </defs>
    <defs>
        <linearGradient id="color" x1="0" y1="0" x2="0" y2="1">
            <stop offset="18%" stop-color="#9340F4" stop-opacity="0.3"></stop>
            <stop offset="85%" stop-color="rgba(159, 68, 255, 0.0001" stop-opacity="0"></stop>
        </linearGradient>
        <filter id="dropshadow">
            <feDropShadow dx="0" dy="0" stdDeviation="8" flood-color="#9340F4" flood-opacity="1"></feDropShadow>
        </filter>
        <linearGradient id="a" x1="570" y1="0" x2="570" y2="75" gradientUnits="userSpaceOnUse">
            <stop stop-color="#9340F4" stop-opacity="0"></stop>
            <stop offset="1" stop-color="#9340F4"></stop>
        </linearGradient>
    </defs>
    <g class="recharts-layer recharts-reference-line">
        <line y="-12.115" stroke="rgba(255, 255, 255, 0.2)" stroke-dasharray="3 3" fill="none" fill-opacity="1"
            stroke-width="1" x1="0" y1="85.43043710021323" x2="279" y2="85.43043710021323"
            class="recharts-reference-line-line"></line>
    </g>
    <g class="recharts-layer recharts-area">
        <g class="recharts-layer">
            <path fill="url(#color)" stroke-width="1.2px" fill-opacity="0.6" width="279" height="85" stroke="none"
                class="recharts-curve recharts-area-area"
                d="M0,70.912C0.41,71.518,0.819,72.124,1.229,72.124C1.639,72.124,2.048,70.885,2.458,70.885C2.868,70.885,3.278,73.124,3.687,73.124C4.097,73.124,4.507,72.431,4.916,72.431C5.326,72.431,5.736,73.017,6.145,73.017C6.555,73.017,6.965,72.617,7.374,72.617C7.784,72.617,8.194,81.835,8.604,83.158C9.013,84.482,9.423,84.913,9.833,85.144C10.242,85.375,10.652,85.49,11.062,85.49C11.471,85.49,11.881,84.518,12.291,84.518C12.7,84.518,13.11,84.522,13.52,84.531C13.93,84.54,14.339,84.957,14.749,84.957C15.159,84.957,15.568,84.953,15.978,84.944C16.388,84.935,16.797,84.38,17.207,83.931C17.617,83.483,18.026,82.252,18.436,82.252C18.846,82.252,19.256,82.445,19.665,82.625C20.075,82.805,20.485,83.332,20.894,83.332C21.304,83.332,21.714,83.145,22.123,83.145C22.533,83.145,22.943,83.158,23.352,83.185C23.762,83.212,24.172,84.118,24.581,84.171C24.991,84.224,25.401,84.198,25.811,84.251C26.22,84.304,26.63,85.713,27.04,86.69C27.449,87.667,27.859,89.248,28.269,90.115C28.678,90.981,29.088,91.887,29.498,91.887C29.907,91.887,30.317,91.578,30.727,91.367C31.137,91.156,31.546,90.621,31.956,90.621C32.366,90.621,32.775,91.325,33.185,91.727C33.595,92.129,34.004,93.033,34.414,93.033C34.824,93.033,35.233,92.447,35.643,92.447C36.053,92.447,36.463,92.464,36.872,92.5C37.282,92.536,37.692,94.601,38.101,94.859C38.511,95.116,38.921,95.245,39.33,95.245C39.74,95.245,40.15,94.712,40.559,94.712C40.969,94.712,41.379,95.418,41.789,95.418C42.198,95.418,42.608,94.632,43.018,94.632C43.427,94.632,43.837,94.703,44.247,94.845C44.656,94.988,45.066,95.374,45.476,95.805C45.885,96.236,46.295,96.971,46.705,97.431C47.115,97.89,47.524,98.563,47.934,98.563C48.344,98.563,48.753,98.541,49.163,98.497C49.573,98.452,49.982,97.884,50.392,97.884C50.802,97.884,51.211,98.057,51.621,98.057C52.031,98.057,52.441,97.582,52.85,97.564C53.26,97.546,53.67,97.537,54.079,97.537C54.489,97.537,54.899,97.662,55.308,97.91C55.718,98.159,56.128,99.014,56.537,99.989C56.947,100.964,57.357,103.077,57.767,103.761C58.176,104.445,58.586,104.787,58.996,104.787C59.405,104.787,59.815,104.554,60.225,104.294C60.634,104.034,61.044,103.228,61.454,103.228C61.863,103.228,62.273,103.561,62.683,103.561C63.093,103.561,63.502,102.255,63.912,102.255C64.322,102.255,64.731,103.001,65.141,103.001C65.551,103.001,65.96,102.646,66.37,102.348C66.78,102.05,67.189,101.502,67.599,101.215C68.009,100.929,68.419,100.629,68.828,100.629C69.238,100.629,69.648,101.628,70.057,101.628C70.467,101.628,70.877,101.255,71.286,101.255C71.696,101.255,72.106,101.651,72.515,101.815C72.925,101.979,73.335,102.046,73.744,102.241C74.154,102.437,74.564,102.988,74.974,102.988C75.383,102.988,75.793,102.641,76.203,102.495C76.612,102.348,77.022,102.366,77.432,102.108C77.841,101.851,78.251,101.377,78.661,100.682C79.07,99.987,79.48,98.292,79.89,97.937C80.3,97.582,80.709,97.759,81.119,97.404C81.529,97.049,81.938,96.056,82.348,95.605C82.758,95.154,83.167,94.699,83.577,94.699C83.987,94.699,84.396,95.994,84.806,96.698C85.216,97.402,85.626,98.603,86.035,98.923C86.445,99.243,86.855,99.403,87.264,99.403C87.674,99.403,88.084,99.096,88.493,99.017C88.903,98.937,89.313,98.897,89.722,98.897C90.132,98.897,90.542,99.783,90.952,100.296C91.361,100.809,91.771,101.779,92.181,101.975C92.59,102.17,93,102.135,93.41,102.268C93.819,102.401,94.229,102.601,94.639,102.775C95.048,102.948,95.458,103.308,95.868,103.308C96.278,103.308,96.687,103.294,97.097,103.268C97.507,103.241,97.916,103.134,98.326,103.134C98.736,103.134,99.145,103.254,99.555,103.254C99.965,103.254,100.374,102.641,100.784,102.641C101.194,102.641,101.604,103.961,102.013,104.094C102.423,104.227,102.833,104.16,103.242,104.294C103.652,104.427,104.062,105,104.471,105C104.881,105,105.291,104.307,105.7,103.867C106.11,103.428,106.52,102.726,106.93,102.361C107.339,101.997,107.749,101.953,108.159,101.682C108.568,101.411,108.978,101.366,109.388,100.736C109.797,100.105,110.207,97.591,110.617,97.591C111.026,97.591,111.436,97.87,111.846,97.87C112.256,97.87,112.665,95.072,113.075,95.072C113.485,95.072,113.894,97.098,114.304,97.098C114.714,97.098,115.123,96.818,115.533,96.698C115.943,96.578,116.352,96.591,116.762,96.378C117.172,96.165,117.581,95.227,117.991,95.112C118.401,94.996,118.811,95.041,119.22,94.939C119.63,94.837,120.04,94.792,120.449,94.499C120.859,94.206,121.269,92.207,121.678,92.207C122.088,92.207,122.498,93.18,122.907,93.18C123.317,93.18,123.727,89.057,124.137,88.249C124.546,87.44,124.956,87.363,125.366,87.036C125.775,86.71,126.185,86.29,126.595,86.29C127.004,86.29,127.414,86.972,127.824,87.223C128.233,87.474,128.643,87.796,129.053,87.796C129.463,87.796,129.872,86.91,130.282,86.01C130.692,85.111,131.101,82.399,131.511,82.399C131.921,82.399,132.33,83.383,132.74,83.731C133.15,84.08,133.559,84.491,133.969,84.491C134.379,84.491,134.789,83.745,135.198,83.745C135.608,83.745,136.018,86.983,136.427,86.983C136.837,86.983,137.247,86.317,137.656,85.943C138.066,85.57,138.476,84.744,138.885,84.744C139.295,84.744,139.705,87.909,140.115,88.915C140.524,89.921,140.934,90.781,141.344,90.781C141.753,90.781,142.163,90.736,142.573,90.648C142.982,90.559,143.392,89.368,143.802,89.368C144.211,89.368,144.621,90.992,145.031,91.461C145.441,91.929,145.85,92.18,146.26,92.18C146.67,92.18,147.079,91.294,147.489,90.888C147.899,90.481,148.308,90.121,148.718,89.741C149.128,89.362,149.537,88.609,149.947,88.609C150.357,88.609,150.767,88.92,151.176,89.408C151.586,89.897,151.996,91.478,152.405,91.541C152.815,91.603,153.225,91.634,153.634,91.634C154.044,91.634,154.454,91.501,154.863,91.501C155.273,91.501,155.683,91.807,156.093,91.807C156.502,91.807,156.912,91.087,157.322,90.514C157.731,89.941,158.141,89.017,158.551,88.369C158.96,87.72,159.37,86.623,159.78,86.623C160.189,86.623,160.599,86.641,161.009,86.676C161.419,86.712,161.828,87.889,162.238,87.889C162.648,87.889,163.057,87.862,163.467,87.809C163.877,87.756,164.286,87.245,164.696,86.397C165.106,85.548,165.515,83.216,165.925,82.719C166.335,82.221,166.744,81.972,167.154,81.972C167.564,81.972,167.974,82.994,168.383,83.825C168.793,84.655,169.203,86.956,169.612,86.956C170.022,86.956,170.432,83.816,170.841,83.638C171.251,83.46,171.661,83.549,172.07,83.372C172.48,83.194,172.89,82.465,173.3,82.465C173.709,82.465,174.119,83.847,174.529,84.331C174.938,84.815,175.348,85.124,175.758,85.37C176.167,85.617,176.577,85.517,176.987,85.81C177.396,86.103,177.806,87.769,178.216,87.769C178.626,87.769,179.035,87.018,179.445,86.77C179.855,86.521,180.264,86.576,180.674,86.277C181.084,85.977,181.493,85.841,181.903,84.971C182.313,84.1,182.722,77.717,183.132,75.602C183.542,73.488,183.952,73.193,184.361,72.284C184.771,71.376,185.181,70.152,185.59,70.152C186,70.152,186.41,70.767,186.819,71.311C187.229,71.855,187.639,73.417,188.048,73.417C188.458,73.417,188.868,71.878,189.278,69.819C189.687,67.76,190.097,61.063,190.507,61.063C190.916,61.063,191.326,65.394,191.736,65.394C192.145,65.394,192.555,65.337,192.965,65.221C193.374,65.106,193.784,61.819,194.194,60.664C194.604,59.509,195.013,59.873,195.423,58.292C195.833,56.71,196.242,52.619,196.652,49.683C197.062,46.747,197.471,42.451,197.881,40.674C198.291,38.897,198.7,38.009,199.11,38.009C199.52,38.009,199.93,38.662,200.339,39.968C200.749,41.274,201.159,47.857,201.568,47.857C201.978,47.857,202.388,46.085,202.797,46.085C203.207,46.085,203.617,51.069,204.026,51.069C204.436,51.069,204.846,50.478,205.256,49.296C205.665,48.115,206.075,41.119,206.485,36.277C206.894,31.435,207.304,20.245,207.714,20.245C208.123,20.245,208.533,20.667,208.943,21.511C209.352,22.355,209.762,25.458,210.172,26.602C210.581,27.746,210.991,27.881,211.401,28.374C211.811,28.867,212.22,29.56,212.63,29.56C213.04,29.56,213.449,27.655,213.859,27.655C214.269,27.655,214.678,29.598,215.088,31.466C215.498,33.334,215.907,36.779,216.317,38.862C216.727,40.945,217.137,42.644,217.546,43.966C217.956,45.287,218.366,46.791,218.775,46.791C219.185,46.791,219.595,44.419,220.004,44.419C220.414,44.419,220.824,48.523,221.233,50.349C221.643,52.175,222.053,55.373,222.463,55.373C222.872,55.373,223.282,53.854,223.692,53.401C224.101,52.948,224.511,53.152,224.921,52.655C225.33,52.157,225.74,49.923,226.15,49.03C226.559,48.137,226.969,47.955,227.379,47.297C227.789,46.64,228.198,45.085,228.608,45.085C229.018,45.085,229.427,45.898,229.837,45.898C230.247,45.898,230.656,41.687,231.066,41.687C231.476,41.687,231.885,44.061,232.295,45.578C232.705,47.095,233.115,50.789,233.524,50.789C233.934,50.789,234.344,47.684,234.753,47.471C235.163,47.257,235.573,47.151,235.982,47.151C236.392,47.151,236.802,49.052,237.211,49.47C237.621,49.887,238.031,50.096,238.441,50.096C238.85,50.096,239.26,47.564,239.67,46.498C240.079,45.432,240.489,44.452,240.899,43.699C241.308,42.946,241.718,42.611,242.128,41.98C242.537,41.35,242.947,40.697,243.357,39.915C243.767,39.133,244.176,37.289,244.586,37.289C244.996,37.289,245.405,37.329,245.815,37.329C246.225,37.329,246.634,37.223,247.044,37.01C247.454,36.796,247.863,32.865,248.273,32.412C248.683,31.959,249.093,32.168,249.502,31.732C249.912,31.297,250.322,29.8,250.731,29.8C251.141,29.8,251.551,32.456,251.96,33.758C252.37,35.06,252.78,37.609,253.189,37.609C253.599,37.609,254.009,36.634,254.419,35.824C254.828,35.013,255.238,32.745,255.648,32.745C256.057,32.745,256.467,34.693,256.877,36.29C257.286,37.887,257.696,40.941,258.106,42.327C258.515,43.713,258.925,43.677,259.335,44.606C259.744,45.534,260.154,47.897,260.564,47.897C260.974,47.897,261.383,46.545,261.793,45.765C262.203,44.985,262.612,43.682,263.022,43.22C263.432,42.758,263.841,42.989,264.251,42.527C264.661,42.065,265.07,32.283,265.48,30.959C265.89,29.636,266.3,29.622,266.709,28.974C267.119,28.325,267.529,27.068,267.938,27.068C268.348,27.068,268.758,28.947,269.167,29.88C269.577,30.813,269.987,32.665,270.396,32.665C270.806,32.665,271.216,29.733,271.626,29.733C272.035,29.733,272.445,31.146,272.855,31.146C273.264,31.146,273.674,29.209,274.084,28.428C274.493,27.646,274.903,27.037,275.313,26.455C275.722,25.873,276.132,25.52,276.542,24.936C276.952,24.352,277.361,23.226,277.771,22.95C278.181,22.675,278.59,22.606,279,22.537L279,105C278.59,105,278.181,105,277.771,105C277.361,105,276.952,105,276.542,105C276.132,105,275.722,105,275.313,105C274.903,105,274.493,105,274.084,105C273.674,105,273.264,105,272.855,105C272.445,105,272.035,105,271.626,105C271.216,105,270.806,105,270.396,105C269.987,105,269.577,105,269.167,105C268.758,105,268.348,105,267.938,105C267.529,105,267.119,105,266.709,105C266.3,105,265.89,105,265.48,105C265.07,105,264.661,105,264.251,105C263.841,105,263.432,105,263.022,105C262.612,105,262.203,105,261.793,105C261.383,105,260.974,105,260.564,105C260.154,105,259.744,105,259.335,105C258.925,105,258.515,105,258.106,105C257.696,105,257.286,105,256.877,105C256.467,105,256.057,105,255.648,105C255.238,105,254.828,105,254.419,105C254.009,105,253.599,105,253.189,105C252.78,105,252.37,105,251.96,105C251.551,105,251.141,105,250.731,105C250.322,105,249.912,105,249.502,105C249.093,105,248.683,105,248.273,105C247.863,105,247.454,105,247.044,105C246.634,105,246.225,105,245.815,105C245.405,105,244.996,105,244.586,105C244.176,105,243.767,105,243.357,105C242.947,105,242.537,105,242.128,105C241.718,105,241.308,105,240.899,105C240.489,105,240.079,105,239.67,105C239.26,105,238.85,105,238.441,105C238.031,105,237.621,105,237.211,105C236.802,105,236.392,105,235.982,105C235.573,105,235.163,105,234.753,105C234.344,105,233.934,105,233.524,105C233.115,105,232.705,105,232.295,105C231.885,105,231.476,105,231.066,105C230.656,105,230.247,105,229.837,105C229.427,105,229.018,105,228.608,105C228.198,105,227.789,105,227.379,105C226.969,105,226.559,105,226.15,105C225.74,105,225.33,105,224.921,105C224.511,105,224.101,105,223.692,105C223.282,105,222.872,105,222.463,105C222.053,105,221.643,105,221.233,105C220.824,105,220.414,105,220.004,105C219.595,105,219.185,105,218.775,105C218.366,105,217.956,105,217.546,105C217.137,105,216.727,105,216.317,105C215.907,105,215.498,105,215.088,105C214.678,105,214.269,105,213.859,105C213.449,105,213.04,105,212.63,105C212.22,105,211.811,105,211.401,105C210.991,105,210.581,105,210.172,105C209.762,105,209.352,105,208.943,105C208.533,105,208.123,105,207.714,105C207.304,105,206.894,105,206.485,105C206.075,105,205.665,105,205.256,105C204.846,105,204.436,105,204.026,105C203.617,105,203.207,105,202.797,105C202.388,105,201.978,105,201.568,105C201.159,105,200.749,105,200.339,105C199.93,105,199.52,105,199.11,105C198.7,105,198.291,105,197.881,105C197.471,105,197.062,105,196.652,105C196.242,105,195.833,105,195.423,105C195.013,105,194.604,105,194.194,105C193.784,105,193.374,105,192.965,105C192.555,105,192.145,105,191.736,105C191.326,105,190.916,105,190.507,105C190.097,105,189.687,105,189.278,105C188.868,105,188.458,105,188.048,105C187.639,105,187.229,105,186.819,105C186.41,105,186,105,185.59,105C185.181,105,184.771,105,184.361,105C183.952,105,183.542,105,183.132,105C182.722,105,182.313,105,181.903,105C181.493,105,181.084,105,180.674,105C180.264,105,179.855,105,179.445,105C179.035,105,178.626,105,178.216,105C177.806,105,177.396,105,176.987,105C176.577,105,176.167,105,175.758,105C175.348,105,174.938,105,174.529,105C174.119,105,173.709,105,173.3,105C172.89,105,172.48,105,172.07,105C171.661,105,171.251,105,170.841,105C170.432,105,170.022,105,169.612,105C169.203,105,168.793,105,168.383,105C167.974,105,167.564,105,167.154,105C166.744,105,166.335,105,165.925,105C165.515,105,165.106,105,164.696,105C164.286,105,163.877,105,163.467,105C163.057,105,162.648,105,162.238,105C161.828,105,161.419,105,161.009,105C160.599,105,160.189,105,159.78,105C159.37,105,158.96,105,158.551,105C158.141,105,157.731,105,157.322,105C156.912,105,156.502,105,156.093,105C155.683,105,155.273,105,154.863,105C154.454,105,154.044,105,153.634,105C153.225,105,152.815,105,152.405,105C151.996,105,151.586,105,151.176,105C150.767,105,150.357,105,149.947,105C149.537,105,149.128,105,148.718,105C148.308,105,147.899,105,147.489,105C147.079,105,146.67,105,146.26,105C145.85,105,145.441,105,145.031,105C144.621,105,144.211,105,143.802,105C143.392,105,142.982,105,142.573,105C142.163,105,141.753,105,141.344,105C140.934,105,140.524,105,140.115,105C139.705,105,139.295,105,138.885,105C138.476,105,138.066,105,137.656,105C137.247,105,136.837,105,136.427,105C136.018,105,135.608,105,135.198,105C134.789,105,134.379,105,133.969,105C133.559,105,133.15,105,132.74,105C132.33,105,131.921,105,131.511,105C131.101,105,130.692,105,130.282,105C129.872,105,129.463,105,129.053,105C128.643,105,128.233,105,127.824,105C127.414,105,127.004,105,126.595,105C126.185,105,125.775,105,125.366,105C124.956,105,124.546,105,124.137,105C123.727,105,123.317,105,122.907,105C122.498,105,122.088,105,121.678,105C121.269,105,120.859,105,120.449,105C120.04,105,119.63,105,119.22,105C118.811,105,118.401,105,117.991,105C117.581,105,117.172,105,116.762,105C116.352,105,115.943,105,115.533,105C115.123,105,114.714,105,114.304,105C113.894,105,113.485,105,113.075,105C112.665,105,112.256,105,111.846,105C111.436,105,111.026,105,110.617,105C110.207,105,109.797,105,109.388,105C108.978,105,108.568,105,108.159,105C107.749,105,107.339,105,106.93,105C106.52,105,106.11,105,105.7,105C105.291,105,104.881,105,104.471,105C104.062,105,103.652,105,103.242,105C102.833,105,102.423,105,102.013,105C101.604,105,101.194,105,100.784,105C100.374,105,99.965,105,99.555,105C99.145,105,98.736,105,98.326,105C97.916,105,97.507,105,97.097,105C96.687,105,96.278,105,95.868,105C95.458,105,95.048,105,94.639,105C94.229,105,93.819,105,93.41,105C93,105,92.59,105,92.181,105C91.771,105,91.361,105,90.952,105C90.542,105,90.132,105,89.722,105C89.313,105,88.903,105,88.493,105C88.084,105,87.674,105,87.264,105C86.855,105,86.445,105,86.035,105C85.626,105,85.216,105,84.806,105C84.396,105,83.987,105,83.577,105C83.167,105,82.758,105,82.348,105C81.938,105,81.529,105,81.119,105C80.709,105,80.3,105,79.89,105C79.48,105,79.07,105,78.661,105C78.251,105,77.841,105,77.432,105C77.022,105,76.612,105,76.203,105C75.793,105,75.383,105,74.974,105C74.564,105,74.154,105,73.744,105C73.335,105,72.925,105,72.515,105C72.106,105,71.696,105,71.286,105C70.877,105,70.467,105,70.057,105C69.648,105,69.238,105,68.828,105C68.419,105,68.009,105,67.599,105C67.189,105,66.78,105,66.37,105C65.96,105,65.551,105,65.141,105C64.731,105,64.322,105,63.912,105C63.502,105,63.093,105,62.683,105C62.273,105,61.863,105,61.454,105C61.044,105,60.634,105,60.225,105C59.815,105,59.405,105,58.996,105C58.586,105,58.176,105,57.767,105C57.357,105,56.947,105,56.537,105C56.128,105,55.718,105,55.308,105C54.899,105,54.489,105,54.079,105C53.67,105,53.26,105,52.85,105C52.441,105,52.031,105,51.621,105C51.211,105,50.802,105,50.392,105C49.982,105,49.573,105,49.163,105C48.753,105,48.344,105,47.934,105C47.524,105,47.115,105,46.705,105C46.295,105,45.885,105,45.476,105C45.066,105,44.656,105,44.247,105C43.837,105,43.427,105,43.018,105C42.608,105,42.198,105,41.789,105C41.379,105,40.969,105,40.559,105C40.15,105,39.74,105,39.33,105C38.921,105,38.511,105,38.101,105C37.692,105,37.282,105,36.872,105C36.463,105,36.053,105,35.643,105C35.233,105,34.824,105,34.414,105C34.004,105,33.595,105,33.185,105C32.775,105,32.366,105,31.956,105C31.546,105,31.137,105,30.727,105C30.317,105,29.907,105,29.498,105C29.088,105,28.678,105,28.269,105C27.859,105,27.449,105,27.04,105C26.63,105,26.22,105,25.811,105C25.401,105,24.991,105,24.581,105C24.172,105,23.762,105,23.352,105C22.943,105,22.533,105,22.123,105C21.714,105,21.304,105,20.894,105C20.485,105,20.075,105,19.665,105C19.256,105,18.846,105,18.436,105C18.026,105,17.617,105,17.207,105C16.797,105,16.388,105,15.978,105C15.568,105,15.159,105,14.749,105C14.339,105,13.93,105,13.52,105C13.11,105,12.7,105,12.291,105C11.881,105,11.471,105,11.062,105C10.652,105,10.242,105,9.833,105C9.423,105,9.013,105,8.604,105C8.194,105,7.784,105,7.374,105C6.965,105,6.555,105,6.145,105C5.736,105,5.326,105,4.916,105C4.507,105,4.097,105,3.687,105C3.278,105,2.868,105,2.458,105C2.048,105,1.639,105,1.229,105C0.819,105,0.41,105,0,105Z">
            </path>
            <path stroke="#CE9FFF" fill="none" stroke-width="1.2px" fill-opacity="0.6" width="279" height="85"
                class="recharts-curve recharts-area-curve"
                d="M0,70.912C0.41,71.518,0.819,72.124,1.229,72.124C1.639,72.124,2.048,70.885,2.458,70.885C2.868,70.885,3.278,73.124,3.687,73.124C4.097,73.124,4.507,72.431,4.916,72.431C5.326,72.431,5.736,73.017,6.145,73.017C6.555,73.017,6.965,72.617,7.374,72.617C7.784,72.617,8.194,81.835,8.604,83.158C9.013,84.482,9.423,84.913,9.833,85.144C10.242,85.375,10.652,85.49,11.062,85.49C11.471,85.49,11.881,84.518,12.291,84.518C12.7,84.518,13.11,84.522,13.52,84.531C13.93,84.54,14.339,84.957,14.749,84.957C15.159,84.957,15.568,84.953,15.978,84.944C16.388,84.935,16.797,84.38,17.207,83.931C17.617,83.483,18.026,82.252,18.436,82.252C18.846,82.252,19.256,82.445,19.665,82.625C20.075,82.805,20.485,83.332,20.894,83.332C21.304,83.332,21.714,83.145,22.123,83.145C22.533,83.145,22.943,83.158,23.352,83.185C23.762,83.212,24.172,84.118,24.581,84.171C24.991,84.224,25.401,84.198,25.811,84.251C26.22,84.304,26.63,85.713,27.04,86.69C27.449,87.667,27.859,89.248,28.269,90.115C28.678,90.981,29.088,91.887,29.498,91.887C29.907,91.887,30.317,91.578,30.727,91.367C31.137,91.156,31.546,90.621,31.956,90.621C32.366,90.621,32.775,91.325,33.185,91.727C33.595,92.129,34.004,93.033,34.414,93.033C34.824,93.033,35.233,92.447,35.643,92.447C36.053,92.447,36.463,92.464,36.872,92.5C37.282,92.536,37.692,94.601,38.101,94.859C38.511,95.116,38.921,95.245,39.33,95.245C39.74,95.245,40.15,94.712,40.559,94.712C40.969,94.712,41.379,95.418,41.789,95.418C42.198,95.418,42.608,94.632,43.018,94.632C43.427,94.632,43.837,94.703,44.247,94.845C44.656,94.988,45.066,95.374,45.476,95.805C45.885,96.236,46.295,96.971,46.705,97.431C47.115,97.89,47.524,98.563,47.934,98.563C48.344,98.563,48.753,98.541,49.163,98.497C49.573,98.452,49.982,97.884,50.392,97.884C50.802,97.884,51.211,98.057,51.621,98.057C52.031,98.057,52.441,97.582,52.85,97.564C53.26,97.546,53.67,97.537,54.079,97.537C54.489,97.537,54.899,97.662,55.308,97.91C55.718,98.159,56.128,99.014,56.537,99.989C56.947,100.964,57.357,103.077,57.767,103.761C58.176,104.445,58.586,104.787,58.996,104.787C59.405,104.787,59.815,104.554,60.225,104.294C60.634,104.034,61.044,103.228,61.454,103.228C61.863,103.228,62.273,103.561,62.683,103.561C63.093,103.561,63.502,102.255,63.912,102.255C64.322,102.255,64.731,103.001,65.141,103.001C65.551,103.001,65.96,102.646,66.37,102.348C66.78,102.05,67.189,101.502,67.599,101.215C68.009,100.929,68.419,100.629,68.828,100.629C69.238,100.629,69.648,101.628,70.057,101.628C70.467,101.628,70.877,101.255,71.286,101.255C71.696,101.255,72.106,101.651,72.515,101.815C72.925,101.979,73.335,102.046,73.744,102.241C74.154,102.437,74.564,102.988,74.974,102.988C75.383,102.988,75.793,102.641,76.203,102.495C76.612,102.348,77.022,102.366,77.432,102.108C77.841,101.851,78.251,101.377,78.661,100.682C79.07,99.987,79.48,98.292,79.89,97.937C80.3,97.582,80.709,97.759,81.119,97.404C81.529,97.049,81.938,96.056,82.348,95.605C82.758,95.154,83.167,94.699,83.577,94.699C83.987,94.699,84.396,95.994,84.806,96.698C85.216,97.402,85.626,98.603,86.035,98.923C86.445,99.243,86.855,99.403,87.264,99.403C87.674,99.403,88.084,99.096,88.493,99.017C88.903,98.937,89.313,98.897,89.722,98.897C90.132,98.897,90.542,99.783,90.952,100.296C91.361,100.809,91.771,101.779,92.181,101.975C92.59,102.17,93,102.135,93.41,102.268C93.819,102.401,94.229,102.601,94.639,102.775C95.048,102.948,95.458,103.308,95.868,103.308C96.278,103.308,96.687,103.294,97.097,103.268C97.507,103.241,97.916,103.134,98.326,103.134C98.736,103.134,99.145,103.254,99.555,103.254C99.965,103.254,100.374,102.641,100.784,102.641C101.194,102.641,101.604,103.961,102.013,104.094C102.423,104.227,102.833,104.16,103.242,104.294C103.652,104.427,104.062,105,104.471,105C104.881,105,105.291,104.307,105.7,103.867C106.11,103.428,106.52,102.726,106.93,102.361C107.339,101.997,107.749,101.953,108.159,101.682C108.568,101.411,108.978,101.366,109.388,100.736C109.797,100.105,110.207,97.591,110.617,97.591C111.026,97.591,111.436,97.87,111.846,97.87C112.256,97.87,112.665,95.072,113.075,95.072C113.485,95.072,113.894,97.098,114.304,97.098C114.714,97.098,115.123,96.818,115.533,96.698C115.943,96.578,116.352,96.591,116.762,96.378C117.172,96.165,117.581,95.227,117.991,95.112C118.401,94.996,118.811,95.041,119.22,94.939C119.63,94.837,120.04,94.792,120.449,94.499C120.859,94.206,121.269,92.207,121.678,92.207C122.088,92.207,122.498,93.18,122.907,93.18C123.317,93.18,123.727,89.057,124.137,88.249C124.546,87.44,124.956,87.363,125.366,87.036C125.775,86.71,126.185,86.29,126.595,86.29C127.004,86.29,127.414,86.972,127.824,87.223C128.233,87.474,128.643,87.796,129.053,87.796C129.463,87.796,129.872,86.91,130.282,86.01C130.692,85.111,131.101,82.399,131.511,82.399C131.921,82.399,132.33,83.383,132.74,83.731C133.15,84.08,133.559,84.491,133.969,84.491C134.379,84.491,134.789,83.745,135.198,83.745C135.608,83.745,136.018,86.983,136.427,86.983C136.837,86.983,137.247,86.317,137.656,85.943C138.066,85.57,138.476,84.744,138.885,84.744C139.295,84.744,139.705,87.909,140.115,88.915C140.524,89.921,140.934,90.781,141.344,90.781C141.753,90.781,142.163,90.736,142.573,90.648C142.982,90.559,143.392,89.368,143.802,89.368C144.211,89.368,144.621,90.992,145.031,91.461C145.441,91.929,145.85,92.18,146.26,92.18C146.67,92.18,147.079,91.294,147.489,90.888C147.899,90.481,148.308,90.121,148.718,89.741C149.128,89.362,149.537,88.609,149.947,88.609C150.357,88.609,150.767,88.92,151.176,89.408C151.586,89.897,151.996,91.478,152.405,91.541C152.815,91.603,153.225,91.634,153.634,91.634C154.044,91.634,154.454,91.501,154.863,91.501C155.273,91.501,155.683,91.807,156.093,91.807C156.502,91.807,156.912,91.087,157.322,90.514C157.731,89.941,158.141,89.017,158.551,88.369C158.96,87.72,159.37,86.623,159.78,86.623C160.189,86.623,160.599,86.641,161.009,86.676C161.419,86.712,161.828,87.889,162.238,87.889C162.648,87.889,163.057,87.862,163.467,87.809C163.877,87.756,164.286,87.245,164.696,86.397C165.106,85.548,165.515,83.216,165.925,82.719C166.335,82.221,166.744,81.972,167.154,81.972C167.564,81.972,167.974,82.994,168.383,83.825C168.793,84.655,169.203,86.956,169.612,86.956C170.022,86.956,170.432,83.816,170.841,83.638C171.251,83.46,171.661,83.549,172.07,83.372C172.48,83.194,172.89,82.465,173.3,82.465C173.709,82.465,174.119,83.847,174.529,84.331C174.938,84.815,175.348,85.124,175.758,85.37C176.167,85.617,176.577,85.517,176.987,85.81C177.396,86.103,177.806,87.769,178.216,87.769C178.626,87.769,179.035,87.018,179.445,86.77C179.855,86.521,180.264,86.576,180.674,86.277C181.084,85.977,181.493,85.841,181.903,84.971C182.313,84.1,182.722,77.717,183.132,75.602C183.542,73.488,183.952,73.193,184.361,72.284C184.771,71.376,185.181,70.152,185.59,70.152C186,70.152,186.41,70.767,186.819,71.311C187.229,71.855,187.639,73.417,188.048,73.417C188.458,73.417,188.868,71.878,189.278,69.819C189.687,67.76,190.097,61.063,190.507,61.063C190.916,61.063,191.326,65.394,191.736,65.394C192.145,65.394,192.555,65.337,192.965,65.221C193.374,65.106,193.784,61.819,194.194,60.664C194.604,59.509,195.013,59.873,195.423,58.292C195.833,56.71,196.242,52.619,196.652,49.683C197.062,46.747,197.471,42.451,197.881,40.674C198.291,38.897,198.7,38.009,199.11,38.009C199.52,38.009,199.93,38.662,200.339,39.968C200.749,41.274,201.159,47.857,201.568,47.857C201.978,47.857,202.388,46.085,202.797,46.085C203.207,46.085,203.617,51.069,204.026,51.069C204.436,51.069,204.846,50.478,205.256,49.296C205.665,48.115,206.075,41.119,206.485,36.277C206.894,31.435,207.304,20.245,207.714,20.245C208.123,20.245,208.533,20.667,208.943,21.511C209.352,22.355,209.762,25.458,210.172,26.602C210.581,27.746,210.991,27.881,211.401,28.374C211.811,28.867,212.22,29.56,212.63,29.56C213.04,29.56,213.449,27.655,213.859,27.655C214.269,27.655,214.678,29.598,215.088,31.466C215.498,33.334,215.907,36.779,216.317,38.862C216.727,40.945,217.137,42.644,217.546,43.966C217.956,45.287,218.366,46.791,218.775,46.791C219.185,46.791,219.595,44.419,220.004,44.419C220.414,44.419,220.824,48.523,221.233,50.349C221.643,52.175,222.053,55.373,222.463,55.373C222.872,55.373,223.282,53.854,223.692,53.401C224.101,52.948,224.511,53.152,224.921,52.655C225.33,52.157,225.74,49.923,226.15,49.03C226.559,48.137,226.969,47.955,227.379,47.297C227.789,46.64,228.198,45.085,228.608,45.085C229.018,45.085,229.427,45.898,229.837,45.898C230.247,45.898,230.656,41.687,231.066,41.687C231.476,41.687,231.885,44.061,232.295,45.578C232.705,47.095,233.115,50.789,233.524,50.789C233.934,50.789,234.344,47.684,234.753,47.471C235.163,47.257,235.573,47.151,235.982,47.151C236.392,47.151,236.802,49.052,237.211,49.47C237.621,49.887,238.031,50.096,238.441,50.096C238.85,50.096,239.26,47.564,239.67,46.498C240.079,45.432,240.489,44.452,240.899,43.699C241.308,42.946,241.718,42.611,242.128,41.98C242.537,41.35,242.947,40.697,243.357,39.915C243.767,39.133,244.176,37.289,244.586,37.289C244.996,37.289,245.405,37.329,245.815,37.329C246.225,37.329,246.634,37.223,247.044,37.01C247.454,36.796,247.863,32.865,248.273,32.412C248.683,31.959,249.093,32.168,249.502,31.732C249.912,31.297,250.322,29.8,250.731,29.8C251.141,29.8,251.551,32.456,251.96,33.758C252.37,35.06,252.78,37.609,253.189,37.609C253.599,37.609,254.009,36.634,254.419,35.824C254.828,35.013,255.238,32.745,255.648,32.745C256.057,32.745,256.467,34.693,256.877,36.29C257.286,37.887,257.696,40.941,258.106,42.327C258.515,43.713,258.925,43.677,259.335,44.606C259.744,45.534,260.154,47.897,260.564,47.897C260.974,47.897,261.383,46.545,261.793,45.765C262.203,44.985,262.612,43.682,263.022,43.22C263.432,42.758,263.841,42.989,264.251,42.527C264.661,42.065,265.07,32.283,265.48,30.959C265.89,29.636,266.3,29.622,266.709,28.974C267.119,28.325,267.529,27.068,267.938,27.068C268.348,27.068,268.758,28.947,269.167,29.88C269.577,30.813,269.987,32.665,270.396,32.665C270.806,32.665,271.216,29.733,271.626,29.733C272.035,29.733,272.445,31.146,272.855,31.146C273.264,31.146,273.674,29.209,274.084,28.428C274.493,27.646,274.903,27.037,275.313,26.455C275.722,25.873,276.132,25.52,276.542,24.936C276.952,24.352,277.361,23.226,277.771,22.95C278.181,22.675,278.59,22.606,279,22.537">
            </path>
        </g>
        <g class="recharts-layer recharts-area-dots"></g>
    </g>
</svg>