<svg class="recharts-surface" width="279" height="105" viewBox="0 0 279 105">
    <title></title>
    <desc></desc>
    <defs>
        <clipPath id="recharts4-clip">
            <rect x="0" y="20" height="85" width="279"></rect>
        </clipPath>
    </defs>
    <defs>
        <linearGradient id="color" x1="0" y1="0" x2="0" y2="1">
            <stop offset="18%" stop-color="#9340F4" stop-opacity="0.3"></stop>
            <stop offset="85%" stop-color="rgba(159, 68, 255, 0.0001" stop-opacity="0"></stop>
        </linearGradient>
        <filter id="dropshadow">
            <feDropShadow dx="0" dy="0" stdDeviation="8" flood-color="#9340F4" flood-opacity="1"></feDropShadow>
        </filter>
        <linearGradient id="a" x1="570" y1="0" x2="570" y2="75" gradientUnits="userSpaceOnUse">
            <stop stop-color="#9340F4" stop-opacity="0"></stop>
            <stop offset="1" stop-color="#9340F4"></stop>
        </linearGradient>
    </defs>
    <g class="recharts-layer recharts-reference-line">
        <line y="17.275" stroke="rgba(255, 255, 255, 0.2)" stroke-dasharray="3 3" fill="none" fill-opacity="1"
            stroke-width="1" x1="0" y1="80.39090053027128" x2="279" y2="80.39090053027128"
            class="recharts-reference-line-line"></line>
    </g>
    <g class="recharts-layer recharts-area">
        <g class="recharts-layer">
            <path fill="url(#color)" stroke-width="1.2px" fill-opacity="0.6" width="279" height="85" stroke="none"
                class="recharts-curve recharts-area-area"
                d="M0,101.433C0.467,101.43,0.935,101.427,1.402,101.421C1.869,101.415,2.337,101.397,2.804,101.397C3.271,101.397,3.739,101.409,4.206,101.409C4.673,101.409,5.141,101.409,5.608,101.409C6.075,101.409,6.543,101.421,7.01,101.445C7.477,101.47,7.945,101.737,8.412,101.737C8.879,101.737,9.347,101.591,9.814,101.518C10.281,101.445,10.749,101.299,11.216,101.299C11.683,101.299,12.151,101.512,12.618,101.701C13.085,101.89,13.553,102.237,14.02,102.431C14.487,102.626,14.955,102.87,15.422,102.87C15.889,102.87,16.357,102.866,16.824,102.857C17.291,102.849,17.759,102.525,18.226,102.517C18.693,102.508,19.161,102.513,19.628,102.504C20.095,102.496,20.563,102.334,21.03,102.334C21.497,102.334,21.965,102.334,22.432,102.334C22.899,102.334,23.367,102.472,23.834,102.638C24.302,102.805,24.769,103.024,25.236,103.332C25.704,103.641,26.171,104.367,26.638,104.489C27.106,104.61,27.573,104.671,28.04,104.671C28.508,104.671,28.975,104.631,29.442,104.55C29.91,104.468,30.377,104.172,30.844,104.172C31.312,104.172,31.779,104.233,32.246,104.233C32.714,104.233,33.181,103.746,33.648,103.746C34.116,103.746,34.583,104.038,35.05,104.038C35.518,104.038,35.985,103.87,36.452,103.758C36.92,103.647,37.387,103.458,37.854,103.369C38.322,103.279,38.789,103.223,39.256,103.223C39.724,103.223,40.191,103.58,40.658,103.637C41.126,103.693,41.593,103.687,42.06,103.722C42.528,103.756,42.995,103.805,43.462,103.844C43.93,103.882,44.397,103.888,44.864,103.953C45.332,104.018,45.799,104.233,46.266,104.233C46.734,104.233,47.201,104.13,47.668,104.087C48.136,104.044,48.603,104.05,49.07,103.977C49.538,103.904,50.005,103.626,50.472,103.344C50.94,103.062,51.407,102.531,51.874,102.285C52.342,102.04,52.809,102.022,53.276,101.871C53.744,101.721,54.211,101.393,54.678,101.384C55.146,101.376,55.613,101.372,56.08,101.372C56.548,101.372,57.015,101.975,57.482,102.2C57.95,102.425,58.417,102.565,58.884,102.724C59.352,102.882,59.819,103.15,60.286,103.15C60.754,103.15,61.221,103.024,61.688,102.882C62.156,102.74,62.623,102.297,63.09,102.297C63.558,102.297,64.025,102.527,64.492,102.76C64.96,102.993,65.427,103.428,65.894,103.697C66.362,103.967,66.829,104.207,67.296,104.379C67.764,104.552,68.231,104.629,68.698,104.732C69.166,104.836,69.633,105,70.101,105C70.568,105,71.035,104.738,71.503,104.55C71.97,104.361,72.437,103.908,72.905,103.868C73.372,103.827,73.839,103.848,74.307,103.807C74.774,103.766,75.241,103.198,75.709,103.198C76.176,103.198,76.643,103.977,77.111,103.977C77.578,103.977,78.045,103.667,78.513,103.515C78.98,103.363,79.447,103.348,79.915,103.064C80.382,102.78,80.849,102.235,81.317,101.81C81.784,101.386,82.251,100.887,82.719,100.52C83.186,100.153,83.653,100.216,84.121,99.607C84.588,98.998,85.055,97.686,85.523,96.564C85.99,95.442,86.457,93.143,86.925,92.875C87.392,92.607,87.859,92.652,88.327,92.473C88.794,92.295,89.261,91.972,89.729,91.804C90.196,91.635,90.663,91.666,91.131,91.463C91.598,91.26,92.065,90.749,92.533,90.586C93,90.424,93.467,90.432,93.935,90.343C94.402,90.254,94.869,90.051,95.337,90.051C95.804,90.051,96.271,90.416,96.739,90.416C97.206,90.416,97.673,89.742,98.141,89.466C98.608,89.19,99.075,88.76,99.543,88.76C100.01,88.76,100.477,89.88,100.945,89.88C101.412,89.88,101.879,87.299,102.347,86.545C102.814,85.79,103.281,85.906,103.749,85.352C104.216,84.798,104.683,83.221,105.151,83.221C105.618,83.221,106.085,83.601,106.553,83.94C107.02,84.278,107.487,85.254,107.955,85.254C108.422,85.254,108.889,83.617,109.357,82.454C109.824,81.292,110.291,78.279,110.759,78.279C111.226,78.279,111.693,78.287,112.161,78.303C112.628,78.319,113.095,79.247,113.563,79.618C114.03,79.989,114.497,79.922,114.965,80.531C115.432,81.14,115.899,84.098,116.367,84.098C116.834,84.098,117.302,81.675,117.769,81.675C118.236,81.675,118.704,81.704,119.171,81.76C119.638,81.817,120.106,86.033,120.573,86.52C121.04,87.007,121.508,87.251,121.975,87.251C122.442,87.251,122.91,86.861,123.377,86.167C123.844,85.473,124.312,83.087,124.779,83.087C125.246,83.087,125.714,86.204,126.181,86.204C126.648,86.204,127.116,85.92,127.583,85.352C128.05,84.784,128.518,82.771,128.985,82.503C129.452,82.235,129.92,82.233,130.387,82.101C130.854,81.969,131.322,81.712,131.789,81.712C132.256,81.712,132.724,81.98,133.191,82.515C133.658,83.051,134.126,84.747,134.593,84.926C135.06,85.104,135.528,85.193,135.995,85.193C136.462,85.193,136.93,84.897,137.397,84.889C137.864,84.881,138.332,84.885,138.799,84.877C139.266,84.869,139.734,83.051,140.201,82.564C140.668,82.077,141.136,82.235,141.603,81.833C142.07,81.432,142.538,80.847,143.005,80.154C143.472,79.46,143.94,77.67,144.407,77.67C144.874,77.67,145.342,78.242,145.809,78.242C146.276,78.242,146.744,77.378,147.211,77.281C147.678,77.183,148.146,77.232,148.613,77.134C149.08,77.037,149.548,74.408,150.015,74.091C150.482,73.775,150.95,73.616,151.417,73.616C151.884,73.616,152.352,74.399,152.819,75.248C153.286,76.096,153.754,78.705,154.221,78.705C154.688,78.705,155.156,76.684,155.623,76.684C156.09,76.684,156.558,78.291,157.025,78.291C157.492,78.291,157.96,71.632,158.427,71.632C158.894,71.632,159.362,73.15,159.829,74.261C160.296,75.373,160.764,77.305,161.231,78.303C161.698,79.301,162.166,79.999,162.633,80.251C163.101,80.502,163.568,80.628,164.035,80.628C164.503,80.628,164.97,76.956,165.437,75.832C165.905,74.708,166.372,74.318,166.839,73.884C167.307,73.45,167.774,73.665,168.241,73.227C168.709,72.788,169.176,68.483,169.643,67.834C170.111,67.184,170.578,67.509,171.045,66.86C171.513,66.211,171.98,63.756,172.447,63.756C172.915,63.756,173.382,63.987,173.849,64.449C174.317,64.912,174.784,67.213,175.251,67.213C175.719,67.213,176.186,66.316,176.653,65.204C177.121,64.092,177.588,60.542,178.055,60.542C178.523,60.542,178.99,64.567,179.457,64.729C179.925,64.892,180.392,64.973,180.859,64.973C181.327,64.973,181.794,63.973,182.261,63.573C182.729,63.173,183.196,63.24,183.663,62.575C184.131,61.909,184.598,55.112,185.065,55.112C185.533,55.112,186,57.145,186.467,57.145C186.935,57.145,187.402,56.025,187.869,56.025C188.337,56.025,188.804,56.192,189.271,56.524C189.739,56.857,190.206,58.054,190.673,58.168C191.141,58.281,191.608,58.225,192.075,58.338C192.543,58.452,193.01,59.543,193.477,59.543C193.945,59.543,194.412,56.539,194.879,54.455C195.347,52.371,195.814,49.476,196.281,47.041C196.749,44.606,197.216,39.846,197.683,39.846C198.151,39.846,198.618,41.275,199.085,42.111C199.553,42.947,200.02,44.862,200.487,44.862C200.955,44.862,201.422,44.594,201.889,44.594C202.357,44.594,202.824,44.74,203.291,44.74C203.759,44.74,204.226,43.024,204.693,43.024C205.161,43.024,205.628,43.426,206.095,44.229C206.563,45.032,207.03,47.601,207.497,48.794C207.965,49.987,208.432,51.306,208.899,51.387C209.367,51.468,209.834,51.509,210.302,51.509C210.769,51.509,211.236,50.571,211.704,50.571C212.171,50.571,212.638,53.231,213.106,54.747C213.573,56.263,214.04,59.665,214.508,59.665C214.975,59.665,215.442,59.446,215.91,59.446C216.377,59.446,216.844,60.724,217.312,60.724C217.779,60.724,218.246,59.566,218.714,58.813C219.181,58.06,219.648,56.92,220.116,56.208C220.583,55.496,221.05,54.911,221.518,54.54C221.985,54.169,222.452,54.353,222.92,53.98C223.387,53.607,223.854,52.203,224.322,52.203C224.789,52.203,225.256,53.747,225.724,54.455C226.191,55.163,226.658,56.451,227.126,56.451C227.593,56.451,228.06,53.968,228.528,53.968C228.995,53.968,229.462,54.155,229.93,54.418C230.397,54.682,230.864,55.285,231.332,55.551C231.799,55.816,232.266,56.013,232.734,56.013C233.201,56.013,233.668,55.654,234.136,55.368C234.603,55.082,235.07,54.69,235.538,54.297C236.005,53.903,236.472,53.52,236.94,53.006C237.407,52.493,237.874,51.683,238.342,51.217C238.809,50.75,239.276,50.438,239.744,50.206C240.211,49.975,240.678,49.975,241.146,49.829C241.613,49.683,242.08,49.662,242.548,49.33C243.015,48.997,243.482,46.558,243.95,46.128C244.417,45.698,244.884,45.797,245.352,45.483C245.819,45.168,246.286,44.241,246.754,44.241C247.221,44.241,247.688,45.166,248.156,45.592C248.623,46.019,249.09,46.798,249.558,46.798C250.025,46.798,250.492,44.783,250.96,43.973C251.427,43.164,251.894,41.94,252.362,41.94C252.829,41.94,253.296,42.458,253.764,43.024C254.231,43.59,254.698,45.02,255.166,45.337C255.633,45.653,256.101,45.495,256.568,45.812C257.035,46.128,257.503,47.479,257.97,47.479C258.437,47.479,258.905,47.207,259.372,46.761C259.839,46.315,260.307,45.603,260.774,44.801C261.241,44,261.709,43.04,262.176,41.952C262.643,40.865,263.111,39.39,263.578,38.276C264.045,37.162,264.513,36.385,264.98,35.269C265.447,34.153,265.915,31.581,266.382,31.581C266.849,31.581,267.317,32.08,267.784,32.08C268.251,32.08,268.719,29.945,269.186,29.292C269.653,28.639,270.121,28.466,270.588,28.16C271.055,27.853,271.523,27.646,271.99,27.454C272.457,27.261,272.925,27.003,273.392,27.003C273.859,27.003,274.327,27.04,274.794,27.04C275.261,27.04,275.729,24.966,276.196,23.972C276.663,22.978,277.131,21.521,277.598,21.075C278.065,20.628,278.533,20.517,279,20.405L279,105C278.533,105,278.065,105,277.598,105C277.131,105,276.663,105,276.196,105C275.729,105,275.261,105,274.794,105C274.327,105,273.859,105,273.392,105C272.925,105,272.457,105,271.99,105C271.523,105,271.055,105,270.588,105C270.121,105,269.653,105,269.186,105C268.719,105,268.251,105,267.784,105C267.317,105,266.849,105,266.382,105C265.915,105,265.447,105,264.98,105C264.513,105,264.045,105,263.578,105C263.111,105,262.643,105,262.176,105C261.709,105,261.241,105,260.774,105C260.307,105,259.839,105,259.372,105C258.905,105,258.437,105,257.97,105C257.503,105,257.035,105,256.568,105C256.101,105,255.633,105,255.166,105C254.698,105,254.231,105,253.764,105C253.296,105,252.829,105,252.362,105C251.894,105,251.427,105,250.96,105C250.492,105,250.025,105,249.558,105C249.09,105,248.623,105,248.156,105C247.688,105,247.221,105,246.754,105C246.286,105,245.819,105,245.352,105C244.884,105,244.417,105,243.95,105C243.482,105,243.015,105,242.548,105C242.08,105,241.613,105,241.146,105C240.678,105,240.211,105,239.744,105C239.276,105,238.809,105,238.342,105C237.874,105,237.407,105,236.94,105C236.472,105,236.005,105,235.538,105C235.07,105,234.603,105,234.136,105C233.668,105,233.201,105,232.734,105C232.266,105,231.799,105,231.332,105C230.864,105,230.397,105,229.93,105C229.462,105,228.995,105,228.528,105C228.06,105,227.593,105,227.126,105C226.658,105,226.191,105,225.724,105C225.256,105,224.789,105,224.322,105C223.854,105,223.387,105,222.92,105C222.452,105,221.985,105,221.518,105C221.05,105,220.583,105,220.116,105C219.648,105,219.181,105,218.714,105C218.246,105,217.779,105,217.312,105C216.844,105,216.377,105,215.91,105C215.442,105,214.975,105,214.508,105C214.04,105,213.573,105,213.106,105C212.638,105,212.171,105,211.704,105C211.236,105,210.769,105,210.302,105C209.834,105,209.367,105,208.899,105C208.432,105,207.965,105,207.497,105C207.03,105,206.563,105,206.095,105C205.628,105,205.161,105,204.693,105C204.226,105,203.759,105,203.291,105C202.824,105,202.357,105,201.889,105C201.422,105,200.955,105,200.487,105C200.02,105,199.553,105,199.085,105C198.618,105,198.151,105,197.683,105C197.216,105,196.749,105,196.281,105C195.814,105,195.347,105,194.879,105C194.412,105,193.945,105,193.477,105C193.01,105,192.543,105,192.075,105C191.608,105,191.141,105,190.673,105C190.206,105,189.739,105,189.271,105C188.804,105,188.337,105,187.869,105C187.402,105,186.935,105,186.467,105C186,105,185.533,105,185.065,105C184.598,105,184.131,105,183.663,105C183.196,105,182.729,105,182.261,105C181.794,105,181.327,105,180.859,105C180.392,105,179.925,105,179.457,105C178.99,105,178.523,105,178.055,105C177.588,105,177.121,105,176.653,105C176.186,105,175.719,105,175.251,105C174.784,105,174.317,105,173.849,105C173.382,105,172.915,105,172.447,105C171.98,105,171.513,105,171.045,105C170.578,105,170.111,105,169.643,105C169.176,105,168.709,105,168.241,105C167.774,105,167.307,105,166.839,105C166.372,105,165.905,105,165.437,105C164.97,105,164.503,105,164.035,105C163.568,105,163.101,105,162.633,105C162.166,105,161.698,105,161.231,105C160.764,105,160.296,105,159.829,105C159.362,105,158.894,105,158.427,105C157.96,105,157.492,105,157.025,105C156.558,105,156.09,105,155.623,105C155.156,105,154.688,105,154.221,105C153.754,105,153.286,105,152.819,105C152.352,105,151.884,105,151.417,105C150.95,105,150.482,105,150.015,105C149.548,105,149.08,105,148.613,105C148.146,105,147.678,105,147.211,105C146.744,105,146.276,105,145.809,105C145.342,105,144.874,105,144.407,105C143.94,105,143.472,105,143.005,105C142.538,105,142.07,105,141.603,105C141.136,105,140.668,105,140.201,105C139.734,105,139.266,105,138.799,105C138.332,105,137.864,105,137.397,105C136.93,105,136.462,105,135.995,105C135.528,105,135.06,105,134.593,105C134.126,105,133.658,105,133.191,105C132.724,105,132.256,105,131.789,105C131.322,105,130.854,105,130.387,105C129.92,105,129.452,105,128.985,105C128.518,105,128.05,105,127.583,105C127.116,105,126.648,105,126.181,105C125.714,105,125.246,105,124.779,105C124.312,105,123.844,105,123.377,105C122.91,105,122.442,105,121.975,105C121.508,105,121.04,105,120.573,105C120.106,105,119.638,105,119.171,105C118.704,105,118.236,105,117.769,105C117.302,105,116.834,105,116.367,105C115.899,105,115.432,105,114.965,105C114.497,105,114.03,105,113.563,105C113.095,105,112.628,105,112.161,105C111.693,105,111.226,105,110.759,105C110.291,105,109.824,105,109.357,105C108.889,105,108.422,105,107.955,105C107.487,105,107.02,105,106.553,105C106.085,105,105.618,105,105.151,105C104.683,105,104.216,105,103.749,105C103.281,105,102.814,105,102.347,105C101.879,105,101.412,105,100.945,105C100.477,105,100.01,105,99.543,105C99.075,105,98.608,105,98.141,105C97.673,105,97.206,105,96.739,105C96.271,105,95.804,105,95.337,105C94.869,105,94.402,105,93.935,105C93.467,105,93,105,92.533,105C92.065,105,91.598,105,91.131,105C90.663,105,90.196,105,89.729,105C89.261,105,88.794,105,88.327,105C87.859,105,87.392,105,86.925,105C86.457,105,85.99,105,85.523,105C85.055,105,84.588,105,84.121,105C83.653,105,83.186,105,82.719,105C82.251,105,81.784,105,81.317,105C80.849,105,80.382,105,79.915,105C79.447,105,78.98,105,78.513,105C78.045,105,77.578,105,77.111,105C76.643,105,76.176,105,75.709,105C75.241,105,74.774,105,74.307,105C73.839,105,73.372,105,72.905,105C72.437,105,71.97,105,71.503,105C71.035,105,70.568,105,70.101,105C69.633,105,69.166,105,68.698,105C68.231,105,67.764,105,67.296,105C66.829,105,66.362,105,65.894,105C65.427,105,64.96,105,64.492,105C64.025,105,63.558,105,63.09,105C62.623,105,62.156,105,61.688,105C61.221,105,60.754,105,60.286,105C59.819,105,59.352,105,58.884,105C58.417,105,57.95,105,57.482,105C57.015,105,56.548,105,56.08,105C55.613,105,55.146,105,54.678,105C54.211,105,53.744,105,53.276,105C52.809,105,52.342,105,51.874,105C51.407,105,50.94,105,50.472,105C50.005,105,49.538,105,49.07,105C48.603,105,48.136,105,47.668,105C47.201,105,46.734,105,46.266,105C45.799,105,45.332,105,44.864,105C44.397,105,43.93,105,43.462,105C42.995,105,42.528,105,42.06,105C41.593,105,41.126,105,40.658,105C40.191,105,39.724,105,39.256,105C38.789,105,38.322,105,37.854,105C37.387,105,36.92,105,36.452,105C35.985,105,35.518,105,35.05,105C34.583,105,34.116,105,33.648,105C33.181,105,32.714,105,32.246,105C31.779,105,31.312,105,30.844,105C30.377,105,29.91,105,29.442,105C28.975,105,28.508,105,28.04,105C27.573,105,27.106,105,26.638,105C26.171,105,25.704,105,25.236,105C24.769,105,24.302,105,23.834,105C23.367,105,22.899,105,22.432,105C21.965,105,21.497,105,21.03,105C20.563,105,20.095,105,19.628,105C19.161,105,18.693,105,18.226,105C17.759,105,17.291,105,16.824,105C16.357,105,15.889,105,15.422,105C14.955,105,14.487,105,14.02,105C13.553,105,13.085,105,12.618,105C12.151,105,11.683,105,11.216,105C10.749,105,10.281,105,9.814,105C9.347,105,8.879,105,8.412,105C7.945,105,7.477,105,7.01,105C6.543,105,6.075,105,5.608,105C5.141,105,4.673,105,4.206,105C3.739,105,3.271,105,2.804,105C2.337,105,1.869,105,1.402,105C0.935,105,0.467,105,0,105Z">
            </path>
            <path stroke="#CE9FFF" fill="none" stroke-width="1.2px" fill-opacity="0.6" width="279" height="85"
                class="recharts-curve recharts-area-curve"
                d="M0,101.433C0.467,101.43,0.935,101.427,1.402,101.421C1.869,101.415,2.337,101.397,2.804,101.397C3.271,101.397,3.739,101.409,4.206,101.409C4.673,101.409,5.141,101.409,5.608,101.409C6.075,101.409,6.543,101.421,7.01,101.445C7.477,101.47,7.945,101.737,8.412,101.737C8.879,101.737,9.347,101.591,9.814,101.518C10.281,101.445,10.749,101.299,11.216,101.299C11.683,101.299,12.151,101.512,12.618,101.701C13.085,101.89,13.553,102.237,14.02,102.431C14.487,102.626,14.955,102.87,15.422,102.87C15.889,102.87,16.357,102.866,16.824,102.857C17.291,102.849,17.759,102.525,18.226,102.517C18.693,102.508,19.161,102.513,19.628,102.504C20.095,102.496,20.563,102.334,21.03,102.334C21.497,102.334,21.965,102.334,22.432,102.334C22.899,102.334,23.367,102.472,23.834,102.638C24.302,102.805,24.769,103.024,25.236,103.332C25.704,103.641,26.171,104.367,26.638,104.489C27.106,104.61,27.573,104.671,28.04,104.671C28.508,104.671,28.975,104.631,29.442,104.55C29.91,104.468,30.377,104.172,30.844,104.172C31.312,104.172,31.779,104.233,32.246,104.233C32.714,104.233,33.181,103.746,33.648,103.746C34.116,103.746,34.583,104.038,35.05,104.038C35.518,104.038,35.985,103.87,36.452,103.758C36.92,103.647,37.387,103.458,37.854,103.369C38.322,103.279,38.789,103.223,39.256,103.223C39.724,103.223,40.191,103.58,40.658,103.637C41.126,103.693,41.593,103.687,42.06,103.722C42.528,103.756,42.995,103.805,43.462,103.844C43.93,103.882,44.397,103.888,44.864,103.953C45.332,104.018,45.799,104.233,46.266,104.233C46.734,104.233,47.201,104.13,47.668,104.087C48.136,104.044,48.603,104.05,49.07,103.977C49.538,103.904,50.005,103.626,50.472,103.344C50.94,103.062,51.407,102.531,51.874,102.285C52.342,102.04,52.809,102.022,53.276,101.871C53.744,101.721,54.211,101.393,54.678,101.384C55.146,101.376,55.613,101.372,56.08,101.372C56.548,101.372,57.015,101.975,57.482,102.2C57.95,102.425,58.417,102.565,58.884,102.724C59.352,102.882,59.819,103.15,60.286,103.15C60.754,103.15,61.221,103.024,61.688,102.882C62.156,102.74,62.623,102.297,63.09,102.297C63.558,102.297,64.025,102.527,64.492,102.76C64.96,102.993,65.427,103.428,65.894,103.697C66.362,103.967,66.829,104.207,67.296,104.379C67.764,104.552,68.231,104.629,68.698,104.732C69.166,104.836,69.633,105,70.101,105C70.568,105,71.035,104.738,71.503,104.55C71.97,104.361,72.437,103.908,72.905,103.868C73.372,103.827,73.839,103.848,74.307,103.807C74.774,103.766,75.241,103.198,75.709,103.198C76.176,103.198,76.643,103.977,77.111,103.977C77.578,103.977,78.045,103.667,78.513,103.515C78.98,103.363,79.447,103.348,79.915,103.064C80.382,102.78,80.849,102.235,81.317,101.81C81.784,101.386,82.251,100.887,82.719,100.52C83.186,100.153,83.653,100.216,84.121,99.607C84.588,98.998,85.055,97.686,85.523,96.564C85.99,95.442,86.457,93.143,86.925,92.875C87.392,92.607,87.859,92.652,88.327,92.473C88.794,92.295,89.261,91.972,89.729,91.804C90.196,91.635,90.663,91.666,91.131,91.463C91.598,91.26,92.065,90.749,92.533,90.586C93,90.424,93.467,90.432,93.935,90.343C94.402,90.254,94.869,90.051,95.337,90.051C95.804,90.051,96.271,90.416,96.739,90.416C97.206,90.416,97.673,89.742,98.141,89.466C98.608,89.19,99.075,88.76,99.543,88.76C100.01,88.76,100.477,89.88,100.945,89.88C101.412,89.88,101.879,87.299,102.347,86.545C102.814,85.79,103.281,85.906,103.749,85.352C104.216,84.798,104.683,83.221,105.151,83.221C105.618,83.221,106.085,83.601,106.553,83.94C107.02,84.278,107.487,85.254,107.955,85.254C108.422,85.254,108.889,83.617,109.357,82.454C109.824,81.292,110.291,78.279,110.759,78.279C111.226,78.279,111.693,78.287,112.161,78.303C112.628,78.319,113.095,79.247,113.563,79.618C114.03,79.989,114.497,79.922,114.965,80.531C115.432,81.14,115.899,84.098,116.367,84.098C116.834,84.098,117.302,81.675,117.769,81.675C118.236,81.675,118.704,81.704,119.171,81.76C119.638,81.817,120.106,86.033,120.573,86.52C121.04,87.007,121.508,87.251,121.975,87.251C122.442,87.251,122.91,86.861,123.377,86.167C123.844,85.473,124.312,83.087,124.779,83.087C125.246,83.087,125.714,86.204,126.181,86.204C126.648,86.204,127.116,85.92,127.583,85.352C128.05,84.784,128.518,82.771,128.985,82.503C129.452,82.235,129.92,82.233,130.387,82.101C130.854,81.969,131.322,81.712,131.789,81.712C132.256,81.712,132.724,81.98,133.191,82.515C133.658,83.051,134.126,84.747,134.593,84.926C135.06,85.104,135.528,85.193,135.995,85.193C136.462,85.193,136.93,84.897,137.397,84.889C137.864,84.881,138.332,84.885,138.799,84.877C139.266,84.869,139.734,83.051,140.201,82.564C140.668,82.077,141.136,82.235,141.603,81.833C142.07,81.432,142.538,80.847,143.005,80.154C143.472,79.46,143.94,77.67,144.407,77.67C144.874,77.67,145.342,78.242,145.809,78.242C146.276,78.242,146.744,77.378,147.211,77.281C147.678,77.183,148.146,77.232,148.613,77.134C149.08,77.037,149.548,74.408,150.015,74.091C150.482,73.775,150.95,73.616,151.417,73.616C151.884,73.616,152.352,74.399,152.819,75.248C153.286,76.096,153.754,78.705,154.221,78.705C154.688,78.705,155.156,76.684,155.623,76.684C156.09,76.684,156.558,78.291,157.025,78.291C157.492,78.291,157.96,71.632,158.427,71.632C158.894,71.632,159.362,73.15,159.829,74.261C160.296,75.373,160.764,77.305,161.231,78.303C161.698,79.301,162.166,79.999,162.633,80.251C163.101,80.502,163.568,80.628,164.035,80.628C164.503,80.628,164.97,76.956,165.437,75.832C165.905,74.708,166.372,74.318,166.839,73.884C167.307,73.45,167.774,73.665,168.241,73.227C168.709,72.788,169.176,68.483,169.643,67.834C170.111,67.184,170.578,67.509,171.045,66.86C171.513,66.211,171.98,63.756,172.447,63.756C172.915,63.756,173.382,63.987,173.849,64.449C174.317,64.912,174.784,67.213,175.251,67.213C175.719,67.213,176.186,66.316,176.653,65.204C177.121,64.092,177.588,60.542,178.055,60.542C178.523,60.542,178.99,64.567,179.457,64.729C179.925,64.892,180.392,64.973,180.859,64.973C181.327,64.973,181.794,63.973,182.261,63.573C182.729,63.173,183.196,63.24,183.663,62.575C184.131,61.909,184.598,55.112,185.065,55.112C185.533,55.112,186,57.145,186.467,57.145C186.935,57.145,187.402,56.025,187.869,56.025C188.337,56.025,188.804,56.192,189.271,56.524C189.739,56.857,190.206,58.054,190.673,58.168C191.141,58.281,191.608,58.225,192.075,58.338C192.543,58.452,193.01,59.543,193.477,59.543C193.945,59.543,194.412,56.539,194.879,54.455C195.347,52.371,195.814,49.476,196.281,47.041C196.749,44.606,197.216,39.846,197.683,39.846C198.151,39.846,198.618,41.275,199.085,42.111C199.553,42.947,200.02,44.862,200.487,44.862C200.955,44.862,201.422,44.594,201.889,44.594C202.357,44.594,202.824,44.74,203.291,44.74C203.759,44.74,204.226,43.024,204.693,43.024C205.161,43.024,205.628,43.426,206.095,44.229C206.563,45.032,207.03,47.601,207.497,48.794C207.965,49.987,208.432,51.306,208.899,51.387C209.367,51.468,209.834,51.509,210.302,51.509C210.769,51.509,211.236,50.571,211.704,50.571C212.171,50.571,212.638,53.231,213.106,54.747C213.573,56.263,214.04,59.665,214.508,59.665C214.975,59.665,215.442,59.446,215.91,59.446C216.377,59.446,216.844,60.724,217.312,60.724C217.779,60.724,218.246,59.566,218.714,58.813C219.181,58.06,219.648,56.92,220.116,56.208C220.583,55.496,221.05,54.911,221.518,54.54C221.985,54.169,222.452,54.353,222.92,53.98C223.387,53.607,223.854,52.203,224.322,52.203C224.789,52.203,225.256,53.747,225.724,54.455C226.191,55.163,226.658,56.451,227.126,56.451C227.593,56.451,228.06,53.968,228.528,53.968C228.995,53.968,229.462,54.155,229.93,54.418C230.397,54.682,230.864,55.285,231.332,55.551C231.799,55.816,232.266,56.013,232.734,56.013C233.201,56.013,233.668,55.654,234.136,55.368C234.603,55.082,235.07,54.69,235.538,54.297C236.005,53.903,236.472,53.52,236.94,53.006C237.407,52.493,237.874,51.683,238.342,51.217C238.809,50.75,239.276,50.438,239.744,50.206C240.211,49.975,240.678,49.975,241.146,49.829C241.613,49.683,242.08,49.662,242.548,49.33C243.015,48.997,243.482,46.558,243.95,46.128C244.417,45.698,244.884,45.797,245.352,45.483C245.819,45.168,246.286,44.241,246.754,44.241C247.221,44.241,247.688,45.166,248.156,45.592C248.623,46.019,249.09,46.798,249.558,46.798C250.025,46.798,250.492,44.783,250.96,43.973C251.427,43.164,251.894,41.94,252.362,41.94C252.829,41.94,253.296,42.458,253.764,43.024C254.231,43.59,254.698,45.02,255.166,45.337C255.633,45.653,256.101,45.495,256.568,45.812C257.035,46.128,257.503,47.479,257.97,47.479C258.437,47.479,258.905,47.207,259.372,46.761C259.839,46.315,260.307,45.603,260.774,44.801C261.241,44,261.709,43.04,262.176,41.952C262.643,40.865,263.111,39.39,263.578,38.276C264.045,37.162,264.513,36.385,264.98,35.269C265.447,34.153,265.915,31.581,266.382,31.581C266.849,31.581,267.317,32.08,267.784,32.08C268.251,32.08,268.719,29.945,269.186,29.292C269.653,28.639,270.121,28.466,270.588,28.16C271.055,27.853,271.523,27.646,271.99,27.454C272.457,27.261,272.925,27.003,273.392,27.003C273.859,27.003,274.327,27.04,274.794,27.04C275.261,27.04,275.729,24.966,276.196,23.972C276.663,22.978,277.131,21.521,277.598,21.075C278.065,20.628,278.533,20.517,279,20.405">
            </path>
        </g>
        <g class="recharts-layer recharts-area-dots"></g>
    </g>
</svg>