<svg class="recharts-surface" width="250" height="105" viewBox="0 0 250 105">
    <title></title>
    <desc></desc>
    <defs>
        <clipPath id="recharts19-clip">
            <rect x="0" y="20" height="85" width="250"></rect>
        </clipPath>
    </defs>
    <defs>
        <linearGradient id="color" x1="0" y1="0" x2="0" y2="1">
            <stop offset="18%" stop-color="#9340F4" stop-opacity="0.3"></stop>
            <stop offset="85%" stop-color="rgba(159, 68, 255, 0.0001" stop-opacity="0"></stop>
        </linearGradient>
        <filter id="dropshadow">
            <feDropShadow dx="0" dy="0" stdDeviation="8" flood-color="#9340F4" flood-opacity="1"></feDropShadow>
        </filter>
        <linearGradient id="a" x1="570" y1="0" x2="570" y2="75" gradientUnits="userSpaceOnUse">
            <stop stop-color="#9340F4" stop-opacity="0"></stop>
            <stop offset="1" stop-color="#9340F4"></stop>
        </linearGradient>
    </defs>
    <g class="recharts-layer recharts-reference-line">
        <line y="55.28" stroke="rgba(255, 255, 255, 0.2)" stroke-dasharray="3 3" fill="none" fill-opacity="1"
            stroke-width="1" x1="0" y1="73.74633330805139" x2="250" y2="73.74633330805139"
            class="recharts-reference-line-line"></line>
    </g>
    <g class="recharts-layer recharts-area">
        <g class="recharts-layer">
            <path fill="url(#color)" stroke-width="1.2px" fill-opacity="0.6" width="250" height="85" stroke="none"
                class="recharts-curve recharts-area-area"
                d="M0,104.488C0.154,104.336,0.309,104.184,0.463,104.184C0.617,104.184,0.772,104.184,0.926,104.184C1.08,104.184,1.235,104.03,1.389,104.03C1.543,104.03,1.698,104.03,1.852,104.03C2.006,104.03,2.16,104.03,2.315,104.03C2.469,104.03,2.623,104.295,2.778,104.295C2.932,104.295,3.086,104.093,3.241,104.003C3.395,103.913,3.549,103.755,3.704,103.755C3.858,103.755,4.012,103.927,4.167,104.014C4.321,104.1,4.475,104.213,4.63,104.273C4.784,104.332,4.938,104.372,5.093,104.372C5.247,104.372,5.401,104.168,5.556,104.168C5.71,104.168,5.864,105,6.019,105C6.173,105,6.327,104.713,6.481,104.713C6.636,104.713,6.79,104.713,6.944,104.713C7.099,104.713,7.253,104.702,7.407,104.68C7.562,104.658,7.716,96.244,7.87,94.812C8.025,93.379,8.179,92.663,8.333,92.663C8.488,92.663,8.642,92.751,8.796,92.751C8.951,92.751,9.105,92.751,9.259,92.751C9.414,92.751,9.568,92.525,9.722,92.073C9.877,91.621,10.031,90.308,10.185,89.985C10.34,89.662,10.494,89.5,10.648,89.5C10.802,89.5,10.957,91.186,11.111,91.186C11.265,91.186,11.42,91.186,11.574,91.186C11.728,91.186,11.883,90.68,12.037,90.426C12.191,90.171,12.346,89.66,12.5,89.66C12.654,89.66,12.809,89.717,12.963,89.831C13.117,89.944,13.272,91.271,13.426,91.506C13.58,91.741,13.735,91.858,13.889,91.858C14.043,91.858,14.198,91.858,14.352,91.858C14.506,91.858,14.66,91.737,14.815,91.737C14.969,91.737,15.123,97.635,15.278,97.848C15.432,98.061,15.586,98.048,15.741,98.167C15.895,98.287,16.049,98.436,16.204,98.564C16.358,98.693,16.512,98.862,16.667,98.939C16.821,99.016,16.975,99.055,17.13,99.055C17.284,99.055,17.438,99.055,17.593,99.055C17.747,99.055,17.901,99.016,18.056,98.939C18.21,98.862,18.364,98.558,18.519,98.118C18.673,97.678,18.827,97.035,18.981,96.299C19.136,95.564,19.29,95.434,19.444,93.704C19.599,91.974,19.753,84.684,19.907,84.684C20.062,84.684,20.216,88.563,20.37,88.563C20.525,88.563,20.679,86.381,20.833,86.381C20.988,86.381,21.142,86.396,21.296,86.425C21.451,86.455,21.605,86.723,21.759,86.723C21.914,86.723,22.068,86.568,22.222,86.568C22.377,86.568,22.531,86.568,22.685,86.568C22.84,86.568,22.994,86.31,23.148,85.792C23.302,85.274,23.457,72.126,23.611,68.176C23.765,64.225,23.92,62.087,24.074,62.087C24.228,62.087,24.383,67.663,24.537,69.283C24.691,70.903,24.846,71.109,25,71.807C25.154,72.505,25.309,73.012,25.463,73.471C25.617,73.93,25.772,74.094,25.926,74.562C26.08,75.029,26.235,76.275,26.389,76.275C26.543,76.275,26.698,58.891,26.852,58.891C27.006,58.891,27.16,60.022,27.315,61.398C27.469,62.774,27.623,65.745,27.778,67.145C27.932,68.546,28.086,68.714,28.241,69.801C28.395,70.888,28.549,72.726,28.704,73.669C28.858,74.612,29.012,75.46,29.167,75.46C29.321,75.46,29.475,73.55,29.63,72.606C29.784,71.662,29.938,71.669,30.093,69.796C30.247,67.922,30.401,57.811,30.556,57.811C30.71,57.811,30.864,60.88,31.019,60.88C31.173,60.88,31.327,53.524,31.481,53.524C31.636,53.524,31.79,54.924,31.944,54.924C32.099,54.924,32.253,51.93,32.407,51.408C32.562,50.886,32.716,50.626,32.87,50.626C33.025,50.626,33.179,62.946,33.333,62.946C33.488,62.946,33.642,61.426,33.796,60.963C33.951,60.5,34.105,60.413,34.259,60.169C34.414,59.926,34.568,59.947,34.722,59.503C34.877,59.058,35.031,49.568,35.185,49.568C35.34,49.568,35.494,51.744,35.648,51.744C35.802,51.744,35.957,38.098,36.111,32.877C36.265,27.657,36.42,20.419,36.574,20.419C36.728,20.419,36.883,21.451,37.037,23.516C37.191,25.58,37.346,37.021,37.5,37.021C37.654,37.021,37.809,34.317,37.963,33.924C38.117,33.531,38.272,33.335,38.426,33.335C38.58,33.335,38.735,46.219,38.889,47.424C39.043,48.629,39.198,48.368,39.352,49.232C39.506,50.095,39.66,52.604,39.815,52.604C39.969,52.604,40.123,51.867,40.278,50.394C40.432,48.921,40.586,43.608,40.741,42.961C40.895,42.315,41.049,42.37,41.204,41.991C41.358,41.613,41.512,40.691,41.667,40.691C41.821,40.691,41.975,46.488,42.13,46.488C42.284,46.488,42.438,46.256,42.593,46.256C42.747,46.256,42.901,46.256,43.056,46.256C43.21,46.256,43.364,40.537,43.519,40.239C43.673,39.941,43.827,39.793,43.981,39.793C44.136,39.793,44.29,39.875,44.444,40.041C44.599,40.206,44.753,41.163,44.907,41.716C45.062,42.269,45.216,43.358,45.37,43.358C45.525,43.358,45.679,42.25,45.833,42.25C45.988,42.25,46.142,42.928,46.296,42.928C46.451,42.928,46.605,42.388,46.759,42.388C46.914,42.388,47.068,42.388,47.222,42.388C47.377,42.388,47.531,42.36,47.685,42.36C47.84,42.36,47.994,45.121,48.148,45.121C48.302,45.121,48.457,43.746,48.611,43.248C48.765,42.749,48.92,42.129,49.074,42.129C49.228,42.129,49.383,42.135,49.537,42.14C49.691,42.146,49.846,42.162,50,42.162C50.154,42.162,50.309,42.162,50.463,42.162C50.617,42.162,50.772,42.808,50.926,43.567C51.08,44.327,51.235,44.934,51.389,46.719C51.543,48.504,51.698,54.279,51.852,54.279C52.006,54.279,52.16,52.923,52.315,52.923C52.469,52.923,52.623,53.041,52.778,53.276C52.932,53.511,53.086,58.582,53.241,58.582C53.395,58.582,53.549,57.669,53.704,57.243C53.858,56.818,54.012,56.512,54.167,56.031C54.321,55.55,54.475,54.356,54.63,54.356C54.784,54.356,54.938,55.131,55.093,56.681C55.247,58.232,55.401,65.409,55.556,69.112C55.71,72.815,55.864,78.255,56.019,78.898C56.173,79.541,56.327,79.694,56.481,79.863C56.636,80.032,56.79,80.116,56.944,80.116C57.099,80.116,57.253,79.44,57.407,78.766C57.562,78.092,57.716,76.072,57.87,76.072C58.025,76.072,58.179,77.322,58.333,77.322C58.488,77.322,58.642,77.144,58.796,77.025C58.951,76.905,59.105,76.606,59.259,76.606C59.414,76.606,59.568,76.606,59.722,76.606C59.877,76.606,60.031,77.3,60.185,77.3C60.34,77.3,60.494,75.991,60.648,75.73C60.802,75.469,60.957,75.6,61.111,75.339C61.265,75.078,61.42,73.245,61.574,73.245C61.728,73.245,61.883,73.691,62.037,73.691C62.191,73.691,62.346,73.691,62.5,73.691C62.654,73.691,62.809,73.546,62.963,73.542C63.117,73.539,63.272,73.541,63.426,73.537C63.58,73.533,63.735,73.48,63.889,73.366C64.043,73.252,64.198,72.356,64.352,71.961C64.506,71.566,64.66,70.997,64.815,70.997C64.969,70.997,65.123,71.443,65.278,71.443C65.432,71.443,65.586,70.189,65.741,69.807C65.895,69.425,66.049,69.588,66.204,69.151C66.358,68.714,66.512,66.857,66.667,65.938C66.821,65.02,66.975,63.688,67.13,63.641C67.284,63.593,67.438,63.569,67.593,63.569C67.747,63.569,67.901,63.569,68.056,63.569C68.21,63.569,68.364,63.336,68.519,62.869C68.673,62.403,68.827,52.753,68.981,52.753C69.136,52.753,69.29,53.204,69.444,53.204C69.599,53.204,69.753,52.918,69.907,52.918C70.062,52.918,70.216,53.067,70.37,53.067C70.525,53.067,70.679,53.067,70.833,53.067C70.988,53.067,71.142,52.503,71.296,52.191C71.451,51.878,71.605,51.594,71.759,51.193C71.914,50.793,72.068,49.788,72.222,49.788C72.377,49.788,72.531,50.361,72.685,50.361C72.84,50.361,72.994,50.361,73.148,50.361C73.302,50.361,73.457,51.32,73.611,51.32C73.765,51.32,73.92,51.006,74.074,50.714C74.228,50.422,74.383,49.568,74.537,49.568C74.691,49.568,74.846,49.942,75,49.942C75.154,49.942,75.309,49.188,75.463,49.055C75.617,48.923,75.772,48.857,75.926,48.857C76.08,48.857,76.235,48.982,76.389,49.232C76.543,49.481,76.698,53.612,76.852,54.02C77.006,54.428,77.16,54.379,77.315,54.632C77.469,54.884,77.623,55.291,77.778,55.535C77.932,55.78,78.086,56.097,78.241,56.097C78.395,56.097,78.549,56.097,78.704,56.097C78.858,56.097,79.012,55.922,79.167,55.717C79.321,55.512,79.475,54.869,79.63,54.869C79.784,54.869,79.938,55.462,80.093,56.648C80.247,57.835,80.401,63.646,80.556,63.812C80.71,63.977,80.864,64.059,81.019,64.059C81.173,64.059,81.327,64.059,81.481,64.059C81.636,64.059,81.79,63.658,81.944,63.486C82.099,63.315,82.253,63.334,82.407,63.029C82.562,62.724,82.716,58.678,82.87,58.659C83.025,58.641,83.179,58.632,83.333,58.632C83.488,58.632,83.642,58.654,83.796,58.654C83.951,58.654,84.105,58.103,84.259,58.103C84.414,58.103,84.568,60.197,84.722,60.197C84.877,60.197,85.031,57.381,85.185,57.381C85.34,57.381,85.494,57.411,85.648,57.469C85.802,57.528,85.957,57.96,86.111,57.96C86.265,57.96,86.42,57.932,86.574,57.932C86.728,57.932,86.883,57.958,87.037,57.982C87.191,58.006,87.346,58.013,87.5,58.075C87.654,58.138,87.809,58.335,87.963,58.759C88.117,59.182,88.272,60.128,88.426,60.616C88.58,61.103,88.735,60.972,88.889,61.685C89.043,62.397,89.198,63.429,89.352,64.897C89.506,66.365,89.66,69.096,89.815,70.495C89.969,71.895,90.123,73.294,90.278,73.294C90.432,73.294,90.586,72.644,90.741,72.644C90.895,72.644,91.049,79.605,91.204,80.392C91.358,81.178,91.512,81.571,91.667,81.571C91.821,81.571,91.975,80.558,92.13,79.295C92.284,78.032,92.438,75.319,92.593,73.994C92.747,72.67,92.901,71.401,93.056,71.349C93.21,71.298,93.364,71.272,93.519,71.272C93.673,71.272,93.827,71.355,93.981,71.355C94.136,71.355,94.29,71.239,94.444,71.239C94.599,71.239,94.753,72.152,94.907,72.683C95.062,73.214,95.216,73.856,95.37,74.424C95.525,74.993,95.679,74.981,95.833,76.094C95.988,77.207,96.142,80.634,96.296,82.1C96.451,83.565,96.605,84.888,96.759,84.888C96.914,84.888,97.068,84.315,97.222,83.676C97.377,83.036,97.531,81.053,97.685,81.053C97.84,81.053,97.994,84.756,98.148,85.571C98.302,86.387,98.457,86.794,98.611,86.794C98.765,86.794,98.92,86.794,99.074,86.794C99.228,86.794,99.383,87.009,99.537,87.439C99.691,87.869,99.846,89.478,100,89.478C100.154,89.478,100.309,89.381,100.463,89.291C100.617,89.2,100.772,89.124,100.926,88.932C101.08,88.74,101.235,88.139,101.389,88.139C101.543,88.139,101.698,88.337,101.852,88.337C102.006,88.337,102.16,87.924,102.315,87.924C102.469,87.924,102.623,87.924,102.778,87.924C102.932,87.924,103.086,88.507,103.241,88.778C103.395,89.049,103.549,89.362,103.704,89.549C103.858,89.737,104.012,89.829,104.167,89.902C104.321,89.976,104.475,90.012,104.63,90.012C104.784,90.012,104.938,89.99,105.093,89.99C105.247,89.99,105.401,90.229,105.556,90.266C105.71,90.303,105.864,90.291,106.019,90.321C106.173,90.351,106.327,90.448,106.481,90.448C106.636,90.448,106.79,90.078,106.944,90.078C107.099,90.078,107.253,90.078,107.407,90.078C107.562,90.078,107.716,89.435,107.87,89.224C108.025,89.014,108.179,88.93,108.333,88.817C108.488,88.704,108.642,88.611,108.796,88.547C108.951,88.482,109.105,88.431,109.259,88.431C109.414,88.431,109.568,89.175,109.722,89.175C109.877,89.175,110.031,88.196,110.185,87.472C110.34,86.748,110.494,85.116,110.648,84.833C110.802,84.55,110.957,84.409,111.111,84.409C111.265,84.409,111.42,84.491,111.574,84.491C111.728,84.491,111.883,84.482,112.037,84.464C112.191,84.445,112.346,84.353,112.5,84.353C112.654,84.353,112.809,84.353,112.963,84.353C113.117,84.353,113.272,84.353,113.426,84.353C113.58,84.353,113.735,84.243,113.889,84.023C114.043,83.802,114.198,82.827,114.352,82.827C114.506,82.827,114.66,85.092,114.815,85.092C114.969,85.092,115.123,84.756,115.278,84.585C115.432,84.414,115.586,84.067,115.741,84.067C115.895,84.067,116.049,84.208,116.204,84.491C116.358,84.774,116.512,89.164,116.667,89.164C116.821,89.164,116.975,87.792,117.13,87.604C117.284,87.417,117.438,87.47,117.593,87.323C117.747,87.176,117.901,87.015,118.056,86.723C118.21,86.431,118.364,85.833,118.519,85.571C118.673,85.309,118.827,85.27,118.981,85.152C119.136,85.035,119.29,84.937,119.444,84.866C119.599,84.794,119.753,84.723,119.907,84.723C120.062,84.723,120.216,85.26,120.37,85.566C120.525,85.871,120.679,86.557,120.833,86.557C120.988,86.557,121.142,85.755,121.296,85.483C121.451,85.211,121.605,84.926,121.759,84.926C121.914,84.926,122.068,86.42,122.222,86.42C122.377,86.42,122.531,85.303,122.685,85.252C122.84,85.2,122.994,85.174,123.148,85.174C123.302,85.174,123.457,85.812,123.611,86.001C123.765,86.19,123.92,86.22,124.074,86.31C124.228,86.4,124.383,86.541,124.537,86.541C124.691,86.541,124.846,86.095,125,86.095C125.154,86.095,125.309,86.161,125.463,86.161C125.617,86.161,125.772,86.161,125.926,86.161C126.08,86.161,126.235,85.946,126.389,85.946C126.543,85.946,126.698,86.084,126.852,86.359C127.006,86.635,127.16,89.324,127.315,89.324C127.469,89.324,127.623,89.324,127.778,89.324C127.932,89.324,128.086,88.954,128.241,88.954C128.395,88.954,128.549,91.446,128.704,92.431C128.858,93.417,129.012,94.867,129.167,94.867C129.321,94.867,129.475,81.854,129.63,81.516C129.784,81.178,129.938,81.347,130.093,81.009C130.247,80.671,130.401,77.992,130.556,76.882C130.71,75.771,130.864,75.083,131.019,74.347C131.173,73.611,131.327,72.78,131.481,72.468C131.636,72.156,131.79,72,131.944,72C132.099,72,132.253,72.462,132.407,72.462C132.562,72.462,132.716,72.33,132.87,72.33C133.025,72.33,133.179,72.53,133.333,72.661C133.488,72.791,133.642,73.113,133.796,73.113C133.951,73.113,134.105,72.784,134.259,72.556C134.414,72.328,134.568,71.746,134.722,71.746C134.877,71.746,135.031,72.248,135.185,72.248C135.34,72.248,135.494,72.231,135.648,72.231C135.802,72.231,135.957,72.446,136.111,72.446C136.265,72.446,136.42,72.446,136.574,72.446C136.728,72.446,136.883,72.446,137.037,72.446C137.191,72.446,137.346,70.831,137.5,67.602C137.654,64.374,137.809,42.873,137.963,42.873C138.117,42.873,138.272,45.314,138.426,45.314C138.58,45.314,138.735,44.956,138.889,44.956C139.043,44.956,139.198,45.389,139.352,46.256C139.506,47.123,139.66,49.986,139.815,51.425C139.969,52.863,140.123,54.316,140.278,54.885C140.432,55.454,140.586,55.684,140.741,55.739C140.895,55.794,141.049,55.767,141.204,55.822C141.358,55.877,141.512,57.574,141.667,57.574C141.821,57.574,141.975,57.216,142.13,57.216C142.284,57.216,142.438,59.548,142.593,59.739C142.747,59.931,142.901,60.026,143.056,60.026C143.21,60.026,143.364,59.607,143.519,59.607C143.673,59.607,143.827,59.712,143.981,59.883C144.136,60.054,144.29,60.324,144.444,60.632C144.599,60.94,144.753,61.729,144.907,61.729C145.062,61.729,145.216,61.222,145.37,61.222C145.525,61.222,145.679,61.389,145.833,61.723C145.988,62.057,146.142,64.908,146.296,64.908C146.451,64.908,146.605,64.61,146.759,64.61C146.914,64.61,147.068,64.61,147.222,64.61C147.377,64.61,147.531,64.655,147.685,64.655C147.84,64.655,147.994,64.655,148.148,64.655C148.302,64.655,148.457,64.274,148.611,64.175C148.765,64.076,148.92,64.125,149.074,64.026C149.228,63.928,149.383,63.586,149.537,63.586C149.691,63.586,149.846,63.586,150,63.586C150.154,63.586,150.309,63.586,150.463,63.586C150.617,63.586,150.772,64.087,150.926,64.087C151.08,64.087,151.235,64.087,151.389,64.087C151.543,64.087,151.698,64.087,151.852,64.087C152.006,64.087,152.16,64.175,152.315,64.175C152.469,64.175,152.623,64.175,152.778,64.175C152.932,64.175,153.086,64.175,153.241,64.175C153.395,64.175,153.549,63.955,153.704,63.955C153.858,63.955,154.012,64.159,154.167,64.159C154.321,64.159,154.475,64.159,154.63,64.159C154.784,64.159,154.938,64.199,155.093,64.28C155.247,64.361,155.401,67.029,155.556,67.029C155.71,67.029,155.864,67.029,156.019,67.029C156.173,67.029,156.327,67.525,156.481,67.525C156.636,67.525,156.79,67.366,156.944,67.366C157.099,67.366,157.253,67.382,157.407,67.415C157.562,67.448,157.716,68.897,157.87,68.897C158.025,68.897,158.179,68.192,158.333,68.192C158.488,68.192,158.642,68.192,158.796,68.192C158.951,68.192,159.105,69.002,159.259,69.002C159.414,69.002,159.568,68.616,159.722,68.616C159.877,68.616,160.031,68.616,160.185,68.616C160.34,68.616,160.494,68.226,160.648,68.06C160.802,67.894,160.957,67.619,161.111,67.619C161.265,67.619,161.42,68.087,161.574,68.087C161.728,68.087,161.883,68.087,162.037,68.087C162.191,68.087,162.346,68.247,162.5,68.567C162.654,68.886,162.809,71.002,162.963,71.002C163.117,71.002,163.272,70.517,163.426,70.517C163.58,70.517,163.735,70.644,163.889,70.644C164.043,70.644,164.198,70.644,164.352,70.644C164.506,70.644,164.66,70.644,164.815,70.644C164.969,70.644,165.123,69.283,165.278,69.063C165.432,68.842,165.586,68.732,165.741,68.732C165.895,68.732,166.049,69.195,166.204,69.195C166.358,69.195,166.512,69.195,166.667,69.195C166.821,69.195,166.975,68.99,167.13,68.82C167.284,68.65,167.438,68.359,167.593,68.176C167.747,67.992,167.901,67.744,168.056,67.718C168.21,67.692,168.364,67.68,168.519,67.68C168.673,67.68,168.827,68.057,168.981,68.225C169.136,68.393,169.29,68.523,169.444,68.688C169.599,68.853,169.753,68.864,169.907,69.217C170.062,69.57,170.216,73.746,170.37,73.746C170.525,73.746,170.679,73.746,170.833,73.746C170.988,73.746,171.142,74.319,171.296,74.319C171.451,74.319,171.605,74.284,171.759,74.248C171.914,74.212,172.068,74.104,172.222,74.104C172.377,74.104,172.531,74.104,172.685,74.104C172.84,74.104,172.994,73.89,173.148,73.89C173.302,73.89,173.457,73.937,173.611,74.033C173.765,74.128,173.92,75.306,174.074,75.306C174.228,75.306,174.383,75.3,174.537,75.289C174.691,75.278,174.846,74.76,175,74.76C175.154,74.76,175.309,74.76,175.463,74.76C175.617,74.76,175.772,74.972,175.926,75.041C176.08,75.11,176.235,75.109,176.389,75.173C176.543,75.238,176.698,75.305,176.852,75.427C177.006,75.549,177.16,75.884,177.315,75.906C177.469,75.928,177.623,75.917,177.778,75.939C177.932,75.961,178.086,76.689,178.241,76.689C178.395,76.689,178.549,76.689,178.704,76.689C178.858,76.689,179.012,76.485,179.167,76.485C179.321,76.485,179.475,76.485,179.63,76.485C179.784,76.485,179.938,76.485,180.093,76.485C180.247,76.485,180.401,80.662,180.556,80.662C180.71,80.662,180.864,80.662,181.019,80.662C181.173,80.662,181.327,80.706,181.481,80.794C181.636,80.882,181.79,84.684,181.944,84.783C182.099,84.882,182.253,84.932,182.407,84.932C182.562,84.932,182.716,84.932,182.87,84.932C183.025,84.932,183.179,84.932,183.333,84.932C183.488,84.932,183.642,84.368,183.796,84.353C183.951,84.339,184.105,84.346,184.259,84.331C184.414,84.317,184.568,83.918,184.722,83.918C184.877,83.918,185.031,84.425,185.185,84.425C185.34,84.425,185.494,84.425,185.648,84.425C185.802,84.425,185.957,83.654,186.111,83.654C186.265,83.654,186.42,83.742,186.574,83.742C186.728,83.742,186.883,83.742,187.037,83.742C187.191,83.742,187.346,83.742,187.5,83.742C187.654,83.742,187.809,83.902,187.963,83.902C188.117,83.902,188.272,83.902,188.426,83.902C188.58,83.902,188.735,83.902,188.889,83.902C189.043,83.902,189.198,83.902,189.352,83.902C189.506,83.902,189.66,83.621,189.815,83.621C189.969,83.621,190.123,83.621,190.278,83.621C190.432,83.621,190.586,83.621,190.741,83.621C190.895,83.621,191.049,83.659,191.204,83.736C191.358,83.813,191.512,84.1,191.667,84.1C191.821,84.1,191.975,84.1,192.13,84.1C192.284,84.1,192.438,84.017,192.593,84.017C192.747,84.017,192.901,84.017,193.056,84.017C193.21,84.017,193.364,83.637,193.519,83.637C193.673,83.637,193.827,83.637,193.981,83.637C194.136,83.637,194.29,84.028,194.444,84.028C194.599,84.028,194.753,83.681,194.907,83.681C195.062,83.681,195.216,83.698,195.37,83.731C195.525,83.764,195.679,89.864,195.833,90.282C195.988,90.701,196.142,90.911,196.296,90.911C196.451,90.911,196.605,90.563,196.759,90.563C196.914,90.563,197.068,91.979,197.222,91.979C197.377,91.979,197.531,91.959,197.685,91.919C197.84,91.878,197.994,91.686,198.148,91.555C198.302,91.425,198.457,91.416,198.611,91.136C198.765,90.857,198.92,88.299,199.074,87.902C199.228,87.505,199.383,87.307,199.537,87.307C199.691,87.307,199.846,88.585,200,88.585C200.154,88.585,200.309,88.585,200.463,88.585C200.617,88.585,200.772,86.422,200.926,85.141C201.08,83.86,201.235,80.899,201.389,80.899C201.543,80.899,201.698,81.312,201.852,81.312C202.006,81.312,202.16,81.312,202.315,81.312C202.469,81.312,202.623,81.011,202.778,80.86C202.932,80.708,203.086,80.403,203.241,80.403C203.395,80.403,203.549,80.403,203.704,80.403C203.858,80.403,204.012,80.739,204.167,80.739C204.321,80.739,204.475,75.245,204.63,75.245C204.784,75.245,204.938,75.62,205.093,75.62C205.247,75.62,205.401,75.62,205.556,75.62C205.71,75.62,205.864,75.787,206.019,76.121C206.173,76.455,206.327,78.711,206.481,78.711C206.636,78.711,206.79,78.711,206.944,78.711C207.099,78.711,207.253,79.365,207.407,79.951C207.562,80.537,207.716,82.226,207.87,82.226C208.025,82.226,208.179,82.226,208.333,82.226C208.488,82.226,208.642,82.386,208.796,82.386C208.951,82.386,209.105,82.386,209.259,82.386C209.414,82.386,209.568,82.386,209.722,82.386C209.877,82.386,210.031,82.039,210.185,82.039C210.34,82.039,210.494,82.039,210.648,82.039C210.802,82.039,210.957,82.175,211.111,82.447C211.265,82.719,211.42,83.863,211.574,84.42C211.728,84.976,211.883,85.786,212.037,85.786C212.191,85.786,212.346,84.151,212.5,84.1C212.654,84.049,212.809,84.023,212.963,84.023C213.117,84.023,213.272,84.023,213.426,84.023C213.58,84.023,213.735,81.448,213.889,81.444C214.043,81.44,214.198,81.439,214.352,81.439C214.506,81.439,214.66,81.442,214.815,81.45C214.969,81.457,215.123,81.709,215.278,81.709C215.432,81.709,215.586,81.709,215.741,81.709C215.895,81.709,216.049,81.709,216.204,81.709C216.358,81.709,216.512,81.224,216.667,80.254C216.821,79.284,216.975,70.049,217.13,70.049C217.284,70.049,217.438,70.049,217.593,70.049C217.747,70.049,217.901,70.049,218.056,70.049C218.21,70.049,218.364,69.605,218.519,69.597C218.673,69.59,218.827,69.594,218.981,69.586C219.136,69.579,219.29,69.118,219.444,69.118C219.599,69.118,219.753,69.245,219.907,69.245C220.062,69.245,220.216,68.988,220.37,68.589C220.525,68.189,220.679,66.848,220.833,66.848C220.988,66.848,221.142,66.859,221.296,66.859C221.451,66.859,221.605,66.859,221.759,66.859C221.914,66.859,222.068,66.859,222.222,66.859C222.377,66.859,222.531,69.75,222.685,70.341C222.84,70.932,222.994,71.006,223.148,71.228C223.302,71.45,223.457,71.675,223.611,71.675C223.765,71.675,223.92,71.675,224.074,71.675C224.228,71.675,224.383,71.416,224.537,71.416C224.691,71.416,224.846,71.443,225,71.443C225.154,71.443,225.309,71.443,225.463,71.443C225.617,71.443,225.772,71.498,225.926,71.498C226.08,71.498,226.235,71.498,226.389,71.498C226.543,71.498,226.698,71.686,226.852,71.686C227.006,71.686,227.16,71.686,227.315,71.686C227.469,71.686,227.623,71.564,227.778,71.564C227.932,71.564,228.086,71.564,228.241,71.564C228.395,71.564,228.549,71.564,228.704,71.564C228.858,71.564,229.012,71.548,229.167,71.548C229.321,71.548,229.475,71.548,229.63,71.548C229.784,71.548,229.938,71.548,230.093,71.548C230.247,71.548,230.401,71.68,230.556,71.68C230.71,71.68,230.864,71.68,231.019,71.68C231.173,71.68,231.327,71.68,231.481,71.68C231.636,71.68,231.79,71.603,231.944,71.603C232.099,71.603,232.253,71.603,232.407,71.603C232.562,71.603,232.716,72.055,232.87,72.055C233.025,72.055,233.179,72.055,233.333,72.055C233.488,72.055,233.642,72.203,233.796,72.203C233.951,72.203,234.105,71.812,234.259,71.812C234.414,71.812,234.568,71.812,234.722,71.812C234.877,71.812,235.031,71.765,235.185,71.669C235.34,71.573,235.494,70.876,235.648,70.876C235.802,70.876,235.957,70.876,236.111,70.876C236.265,70.876,236.42,70.539,236.574,70.539C236.728,70.539,236.883,70.539,237.037,70.539C237.191,70.539,237.346,70.539,237.5,70.539C237.654,70.539,237.809,74.72,237.963,74.97C238.117,75.219,238.272,75.344,238.426,75.344C238.58,75.344,238.735,75.344,238.889,75.344C239.043,75.344,239.198,76.489,239.352,76.937C239.506,77.385,239.66,78.033,239.815,78.033C239.969,78.033,240.123,77.903,240.278,77.835C240.432,77.767,240.586,77.67,240.741,77.625C240.895,77.581,241.049,77.559,241.204,77.559C241.358,77.559,241.512,77.559,241.667,77.559C241.821,77.559,241.975,77.559,242.13,77.559C242.284,77.559,242.438,77.648,242.593,77.648C242.747,77.648,242.901,77.648,243.056,77.648C243.21,77.648,243.364,77.648,243.519,77.648C243.673,77.648,243.827,77.493,243.981,77.493C244.136,77.493,244.29,77.493,244.444,77.493C244.599,77.493,244.753,77.493,244.907,77.493C245.062,77.493,245.216,77.42,245.37,77.273C245.525,77.126,245.679,74.064,245.833,73.664C245.988,73.263,246.142,73.207,246.296,73.063C246.451,72.919,246.605,72.799,246.759,72.799C246.914,72.799,247.068,74.167,247.222,75.096C247.377,76.026,247.531,78.375,247.685,78.375C247.84,78.375,247.994,78.375,248.148,78.375C248.302,78.375,248.457,76.309,248.611,75.691C248.765,75.074,248.92,75.352,249.074,74.672C249.228,73.992,249.383,63.201,249.537,59.8C249.691,56.399,249.846,55.334,250,54.268L250,105C249.846,105,249.691,105,249.537,105C249.383,105,249.228,105,249.074,105C248.92,105,248.765,105,248.611,105C248.457,105,248.302,105,248.148,105C247.994,105,247.84,105,247.685,105C247.531,105,247.377,105,247.222,105C247.068,105,246.914,105,246.759,105C246.605,105,246.451,105,246.296,105C246.142,105,245.988,105,245.833,105C245.679,105,245.525,105,245.37,105C245.216,105,245.062,105,244.907,105C244.753,105,244.599,105,244.444,105C244.29,105,244.136,105,243.981,105C243.827,105,243.673,105,243.519,105C243.364,105,243.21,105,243.056,105C242.901,105,242.747,105,242.593,105C242.438,105,242.284,105,242.13,105C241.975,105,241.821,105,241.667,105C241.512,105,241.358,105,241.204,105C241.049,105,240.895,105,240.741,105C240.586,105,240.432,105,240.278,105C240.123,105,239.969,105,239.815,105C239.66,105,239.506,105,239.352,105C239.198,105,239.043,105,238.889,105C238.735,105,238.58,105,238.426,105C238.272,105,238.117,105,237.963,105C237.809,105,237.654,105,237.5,105C237.346,105,237.191,105,237.037,105C236.883,105,236.728,105,236.574,105C236.42,105,236.265,105,236.111,105C235.957,105,235.802,105,235.648,105C235.494,105,235.34,105,235.185,105C235.031,105,234.877,105,234.722,105C234.568,105,234.414,105,234.259,105C234.105,105,233.951,105,233.796,105C233.642,105,233.488,105,233.333,105C233.179,105,233.025,105,232.87,105C232.716,105,232.562,105,232.407,105C232.253,105,232.099,105,231.944,105C231.79,105,231.636,105,231.481,105C231.327,105,231.173,105,231.019,105C230.864,105,230.71,105,230.556,105C230.401,105,230.247,105,230.093,105C229.938,105,229.784,105,229.63,105C229.475,105,229.321,105,229.167,105C229.012,105,228.858,105,228.704,105C228.549,105,228.395,105,228.241,105C228.086,105,227.932,105,227.778,105C227.623,105,227.469,105,227.315,105C227.16,105,227.006,105,226.852,105C226.698,105,226.543,105,226.389,105C226.235,105,226.08,105,225.926,105C225.772,105,225.617,105,225.463,105C225.309,105,225.154,105,225,105C224.846,105,224.691,105,224.537,105C224.383,105,224.228,105,224.074,105C223.92,105,223.765,105,223.611,105C223.457,105,223.302,105,223.148,105C222.994,105,222.84,105,222.685,105C222.531,105,222.377,105,222.222,105C222.068,105,221.914,105,221.759,105C221.605,105,221.451,105,221.296,105C221.142,105,220.988,105,220.833,105C220.679,105,220.525,105,220.37,105C220.216,105,220.062,105,219.907,105C219.753,105,219.599,105,219.444,105C219.29,105,219.136,105,218.981,105C218.827,105,218.673,105,218.519,105C218.364,105,218.21,105,218.056,105C217.901,105,217.747,105,217.593,105C217.438,105,217.284,105,217.13,105C216.975,105,216.821,105,216.667,105C216.512,105,216.358,105,216.204,105C216.049,105,215.895,105,215.741,105C215.586,105,215.432,105,215.278,105C215.123,105,214.969,105,214.815,105C214.66,105,214.506,105,214.352,105C214.198,105,214.043,105,213.889,105C213.735,105,213.58,105,213.426,105C213.272,105,213.117,105,212.963,105C212.809,105,212.654,105,212.5,105C212.346,105,212.191,105,212.037,105C211.883,105,211.728,105,211.574,105C211.42,105,211.265,105,211.111,105C210.957,105,210.802,105,210.648,105C210.494,105,210.34,105,210.185,105C210.031,105,209.877,105,209.722,105C209.568,105,209.414,105,209.259,105C209.105,105,208.951,105,208.796,105C208.642,105,208.488,105,208.333,105C208.179,105,208.025,105,207.87,105C207.716,105,207.562,105,207.407,105C207.253,105,207.099,105,206.944,105C206.79,105,206.636,105,206.481,105C206.327,105,206.173,105,206.019,105C205.864,105,205.71,105,205.556,105C205.401,105,205.247,105,205.093,105C204.938,105,204.784,105,204.63,105C204.475,105,204.321,105,204.167,105C204.012,105,203.858,105,203.704,105C203.549,105,203.395,105,203.241,105C203.086,105,202.932,105,202.778,105C202.623,105,202.469,105,202.315,105C202.16,105,202.006,105,201.852,105C201.698,105,201.543,105,201.389,105C201.235,105,201.08,105,200.926,105C200.772,105,200.617,105,200.463,105C200.309,105,200.154,105,200,105C199.846,105,199.691,105,199.537,105C199.383,105,199.228,105,199.074,105C198.92,105,198.765,105,198.611,105C198.457,105,198.302,105,198.148,105C197.994,105,197.84,105,197.685,105C197.531,105,197.377,105,197.222,105C197.068,105,196.914,105,196.759,105C196.605,105,196.451,105,196.296,105C196.142,105,195.988,105,195.833,105C195.679,105,195.525,105,195.37,105C195.216,105,195.062,105,194.907,105C194.753,105,194.599,105,194.444,105C194.29,105,194.136,105,193.981,105C193.827,105,193.673,105,193.519,105C193.364,105,193.21,105,193.056,105C192.901,105,192.747,105,192.593,105C192.438,105,192.284,105,192.13,105C191.975,105,191.821,105,191.667,105C191.512,105,191.358,105,191.204,105C191.049,105,190.895,105,190.741,105C190.586,105,190.432,105,190.278,105C190.123,105,189.969,105,189.815,105C189.66,105,189.506,105,189.352,105C189.198,105,189.043,105,188.889,105C188.735,105,188.58,105,188.426,105C188.272,105,188.117,105,187.963,105C187.809,105,187.654,105,187.5,105C187.346,105,187.191,105,187.037,105C186.883,105,186.728,105,186.574,105C186.42,105,186.265,105,186.111,105C185.957,105,185.802,105,185.648,105C185.494,105,185.34,105,185.185,105C185.031,105,184.877,105,184.722,105C184.568,105,184.414,105,184.259,105C184.105,105,183.951,105,183.796,105C183.642,105,183.488,105,183.333,105C183.179,105,183.025,105,182.87,105C182.716,105,182.562,105,182.407,105C182.253,105,182.099,105,181.944,105C181.79,105,181.636,105,181.481,105C181.327,105,181.173,105,181.019,105C180.864,105,180.71,105,180.556,105C180.401,105,180.247,105,180.093,105C179.938,105,179.784,105,179.63,105C179.475,105,179.321,105,179.167,105C179.012,105,178.858,105,178.704,105C178.549,105,178.395,105,178.241,105C178.086,105,177.932,105,177.778,105C177.623,105,177.469,105,177.315,105C177.16,105,177.006,105,176.852,105C176.698,105,176.543,105,176.389,105C176.235,105,176.08,105,175.926,105C175.772,105,175.617,105,175.463,105C175.309,105,175.154,105,175,105C174.846,105,174.691,105,174.537,105C174.383,105,174.228,105,174.074,105C173.92,105,173.765,105,173.611,105C173.457,105,173.302,105,173.148,105C172.994,105,172.84,105,172.685,105C172.531,105,172.377,105,172.222,105C172.068,105,171.914,105,171.759,105C171.605,105,171.451,105,171.296,105C171.142,105,170.988,105,170.833,105C170.679,105,170.525,105,170.37,105C170.216,105,170.062,105,169.907,105C169.753,105,169.599,105,169.444,105C169.29,105,169.136,105,168.981,105C168.827,105,168.673,105,168.519,105C168.364,105,168.21,105,168.056,105C167.901,105,167.747,105,167.593,105C167.438,105,167.284,105,167.13,105C166.975,105,166.821,105,166.667,105C166.512,105,166.358,105,166.204,105C166.049,105,165.895,105,165.741,105C165.586,105,165.432,105,165.278,105C165.123,105,164.969,105,164.815,105C164.66,105,164.506,105,164.352,105C164.198,105,164.043,105,163.889,105C163.735,105,163.58,105,163.426,105C163.272,105,163.117,105,162.963,105C162.809,105,162.654,105,162.5,105C162.346,105,162.191,105,162.037,105C161.883,105,161.728,105,161.574,105C161.42,105,161.265,105,161.111,105C160.957,105,160.802,105,160.648,105C160.494,105,160.34,105,160.185,105C160.031,105,159.877,105,159.722,105C159.568,105,159.414,105,159.259,105C159.105,105,158.951,105,158.796,105C158.642,105,158.488,105,158.333,105C158.179,105,158.025,105,157.87,105C157.716,105,157.562,105,157.407,105C157.253,105,157.099,105,156.944,105C156.79,105,156.636,105,156.481,105C156.327,105,156.173,105,156.019,105C155.864,105,155.71,105,155.556,105C155.401,105,155.247,105,155.093,105C154.938,105,154.784,105,154.63,105C154.475,105,154.321,105,154.167,105C154.012,105,153.858,105,153.704,105C153.549,105,153.395,105,153.241,105C153.086,105,152.932,105,152.778,105C152.623,105,152.469,105,152.315,105C152.16,105,152.006,105,151.852,105C151.698,105,151.543,105,151.389,105C151.235,105,151.08,105,150.926,105C150.772,105,150.617,105,150.463,105C150.309,105,150.154,105,150,105C149.846,105,149.691,105,149.537,105C149.383,105,149.228,105,149.074,105C148.92,105,148.765,105,148.611,105C148.457,105,148.302,105,148.148,105C147.994,105,147.84,105,147.685,105C147.531,105,147.377,105,147.222,105C147.068,105,146.914,105,146.759,105C146.605,105,146.451,105,146.296,105C146.142,105,145.988,105,145.833,105C145.679,105,145.525,105,145.37,105C145.216,105,145.062,105,144.907,105C144.753,105,144.599,105,144.444,105C144.29,105,144.136,105,143.981,105C143.827,105,143.673,105,143.519,105C143.364,105,143.21,105,143.056,105C142.901,105,142.747,105,142.593,105C142.438,105,142.284,105,142.13,105C141.975,105,141.821,105,141.667,105C141.512,105,141.358,105,141.204,105C141.049,105,140.895,105,140.741,105C140.586,105,140.432,105,140.278,105C140.123,105,139.969,105,139.815,105C139.66,105,139.506,105,139.352,105C139.198,105,139.043,105,138.889,105C138.735,105,138.58,105,138.426,105C138.272,105,138.117,105,137.963,105C137.809,105,137.654,105,137.5,105C137.346,105,137.191,105,137.037,105C136.883,105,136.728,105,136.574,105C136.42,105,136.265,105,136.111,105C135.957,105,135.802,105,135.648,105C135.494,105,135.34,105,135.185,105C135.031,105,134.877,105,134.722,105C134.568,105,134.414,105,134.259,105C134.105,105,133.951,105,133.796,105C133.642,105,133.488,105,133.333,105C133.179,105,133.025,105,132.87,105C132.716,105,132.562,105,132.407,105C132.253,105,132.099,105,131.944,105C131.79,105,131.636,105,131.481,105C131.327,105,131.173,105,131.019,105C130.864,105,130.71,105,130.556,105C130.401,105,130.247,105,130.093,105C129.938,105,129.784,105,129.63,105C129.475,105,129.321,105,129.167,105C129.012,105,128.858,105,128.704,105C128.549,105,128.395,105,128.241,105C128.086,105,127.932,105,127.778,105C127.623,105,127.469,105,127.315,105C127.16,105,127.006,105,126.852,105C126.698,105,126.543,105,126.389,105C126.235,105,126.08,105,125.926,105C125.772,105,125.617,105,125.463,105C125.309,105,125.154,105,125,105C124.846,105,124.691,105,124.537,105C124.383,105,124.228,105,124.074,105C123.92,105,123.765,105,123.611,105C123.457,105,123.302,105,123.148,105C122.994,105,122.84,105,122.685,105C122.531,105,122.377,105,122.222,105C122.068,105,121.914,105,121.759,105C121.605,105,121.451,105,121.296,105C121.142,105,120.988,105,120.833,105C120.679,105,120.525,105,120.37,105C120.216,105,120.062,105,119.907,105C119.753,105,119.599,105,119.444,105C119.29,105,119.136,105,118.981,105C118.827,105,118.673,105,118.519,105C118.364,105,118.21,105,118.056,105C117.901,105,117.747,105,117.593,105C117.438,105,117.284,105,117.13,105C116.975,105,116.821,105,116.667,105C116.512,105,116.358,105,116.204,105C116.049,105,115.895,105,115.741,105C115.586,105,115.432,105,115.278,105C115.123,105,114.969,105,114.815,105C114.66,105,114.506,105,114.352,105C114.198,105,114.043,105,113.889,105C113.735,105,113.58,105,113.426,105C113.272,105,113.117,105,112.963,105C112.809,105,112.654,105,112.5,105C112.346,105,112.191,105,112.037,105C111.883,105,111.728,105,111.574,105C111.42,105,111.265,105,111.111,105C110.957,105,110.802,105,110.648,105C110.494,105,110.34,105,110.185,105C110.031,105,109.877,105,109.722,105C109.568,105,109.414,105,109.259,105C109.105,105,108.951,105,108.796,105C108.642,105,108.488,105,108.333,105C108.179,105,108.025,105,107.87,105C107.716,105,107.562,105,107.407,105C107.253,105,107.099,105,106.944,105C106.79,105,106.636,105,106.481,105C106.327,105,106.173,105,106.019,105C105.864,105,105.71,105,105.556,105C105.401,105,105.247,105,105.093,105C104.938,105,104.784,105,104.63,105C104.475,105,104.321,105,104.167,105C104.012,105,103.858,105,103.704,105C103.549,105,103.395,105,103.241,105C103.086,105,102.932,105,102.778,105C102.623,105,102.469,105,102.315,105C102.16,105,102.006,105,101.852,105C101.698,105,101.543,105,101.389,105C101.235,105,101.08,105,100.926,105C100.772,105,100.617,105,100.463,105C100.309,105,100.154,105,100,105C99.846,105,99.691,105,99.537,105C99.383,105,99.228,105,99.074,105C98.92,105,98.765,105,98.611,105C98.457,105,98.302,105,98.148,105C97.994,105,97.84,105,97.685,105C97.531,105,97.377,105,97.222,105C97.068,105,96.914,105,96.759,105C96.605,105,96.451,105,96.296,105C96.142,105,95.988,105,95.833,105C95.679,105,95.525,105,95.37,105C95.216,105,95.062,105,94.907,105C94.753,105,94.599,105,94.444,105C94.29,105,94.136,105,93.981,105C93.827,105,93.673,105,93.519,105C93.364,105,93.21,105,93.056,105C92.901,105,92.747,105,92.593,105C92.438,105,92.284,105,92.13,105C91.975,105,91.821,105,91.667,105C91.512,105,91.358,105,91.204,105C91.049,105,90.895,105,90.741,105C90.586,105,90.432,105,90.278,105C90.123,105,89.969,105,89.815,105C89.66,105,89.506,105,89.352,105C89.198,105,89.043,105,88.889,105C88.735,105,88.58,105,88.426,105C88.272,105,88.117,105,87.963,105C87.809,105,87.654,105,87.5,105C87.346,105,87.191,105,87.037,105C86.883,105,86.728,105,86.574,105C86.42,105,86.265,105,86.111,105C85.957,105,85.802,105,85.648,105C85.494,105,85.34,105,85.185,105C85.031,105,84.877,105,84.722,105C84.568,105,84.414,105,84.259,105C84.105,105,83.951,105,83.796,105C83.642,105,83.488,105,83.333,105C83.179,105,83.025,105,82.87,105C82.716,105,82.562,105,82.407,105C82.253,105,82.099,105,81.944,105C81.79,105,81.636,105,81.481,105C81.327,105,81.173,105,81.019,105C80.864,105,80.71,105,80.556,105C80.401,105,80.247,105,80.093,105C79.938,105,79.784,105,79.63,105C79.475,105,79.321,105,79.167,105C79.012,105,78.858,105,78.704,105C78.549,105,78.395,105,78.241,105C78.086,105,77.932,105,77.778,105C77.623,105,77.469,105,77.315,105C77.16,105,77.006,105,76.852,105C76.698,105,76.543,105,76.389,105C76.235,105,76.08,105,75.926,105C75.772,105,75.617,105,75.463,105C75.309,105,75.154,105,75,105C74.846,105,74.691,105,74.537,105C74.383,105,74.228,105,74.074,105C73.92,105,73.765,105,73.611,105C73.457,105,73.302,105,73.148,105C72.994,105,72.84,105,72.685,105C72.531,105,72.377,105,72.222,105C72.068,105,71.914,105,71.759,105C71.605,105,71.451,105,71.296,105C71.142,105,70.988,105,70.833,105C70.679,105,70.525,105,70.37,105C70.216,105,70.062,105,69.907,105C69.753,105,69.599,105,69.444,105C69.29,105,69.136,105,68.981,105C68.827,105,68.673,105,68.519,105C68.364,105,68.21,105,68.056,105C67.901,105,67.747,105,67.593,105C67.438,105,67.284,105,67.13,105C66.975,105,66.821,105,66.667,105C66.512,105,66.358,105,66.204,105C66.049,105,65.895,105,65.741,105C65.586,105,65.432,105,65.278,105C65.123,105,64.969,105,64.815,105C64.66,105,64.506,105,64.352,105C64.198,105,64.043,105,63.889,105C63.735,105,63.58,105,63.426,105C63.272,105,63.117,105,62.963,105C62.809,105,62.654,105,62.5,105C62.346,105,62.191,105,62.037,105C61.883,105,61.728,105,61.574,105C61.42,105,61.265,105,61.111,105C60.957,105,60.802,105,60.648,105C60.494,105,60.34,105,60.185,105C60.031,105,59.877,105,59.722,105C59.568,105,59.414,105,59.259,105C59.105,105,58.951,105,58.796,105C58.642,105,58.488,105,58.333,105C58.179,105,58.025,105,57.87,105C57.716,105,57.562,105,57.407,105C57.253,105,57.099,105,56.944,105C56.79,105,56.636,105,56.481,105C56.327,105,56.173,105,56.019,105C55.864,105,55.71,105,55.556,105C55.401,105,55.247,105,55.093,105C54.938,105,54.784,105,54.63,105C54.475,105,54.321,105,54.167,105C54.012,105,53.858,105,53.704,105C53.549,105,53.395,105,53.241,105C53.086,105,52.932,105,52.778,105C52.623,105,52.469,105,52.315,105C52.16,105,52.006,105,51.852,105C51.698,105,51.543,105,51.389,105C51.235,105,51.08,105,50.926,105C50.772,105,50.617,105,50.463,105C50.309,105,50.154,105,50,105C49.846,105,49.691,105,49.537,105C49.383,105,49.228,105,49.074,105C48.92,105,48.765,105,48.611,105C48.457,105,48.302,105,48.148,105C47.994,105,47.84,105,47.685,105C47.531,105,47.377,105,47.222,105C47.068,105,46.914,105,46.759,105C46.605,105,46.451,105,46.296,105C46.142,105,45.988,105,45.833,105C45.679,105,45.525,105,45.37,105C45.216,105,45.062,105,44.907,105C44.753,105,44.599,105,44.444,105C44.29,105,44.136,105,43.981,105C43.827,105,43.673,105,43.519,105C43.364,105,43.21,105,43.056,105C42.901,105,42.747,105,42.593,105C42.438,105,42.284,105,42.13,105C41.975,105,41.821,105,41.667,105C41.512,105,41.358,105,41.204,105C41.049,105,40.895,105,40.741,105C40.586,105,40.432,105,40.278,105C40.123,105,39.969,105,39.815,105C39.66,105,39.506,105,39.352,105C39.198,105,39.043,105,38.889,105C38.735,105,38.58,105,38.426,105C38.272,105,38.117,105,37.963,105C37.809,105,37.654,105,37.5,105C37.346,105,37.191,105,37.037,105C36.883,105,36.728,105,36.574,105C36.42,105,36.265,105,36.111,105C35.957,105,35.802,105,35.648,105C35.494,105,35.34,105,35.185,105C35.031,105,34.877,105,34.722,105C34.568,105,34.414,105,34.259,105C34.105,105,33.951,105,33.796,105C33.642,105,33.488,105,33.333,105C33.179,105,33.025,105,32.87,105C32.716,105,32.562,105,32.407,105C32.253,105,32.099,105,31.944,105C31.79,105,31.636,105,31.481,105C31.327,105,31.173,105,31.019,105C30.864,105,30.71,105,30.556,105C30.401,105,30.247,105,30.093,105C29.938,105,29.784,105,29.63,105C29.475,105,29.321,105,29.167,105C29.012,105,28.858,105,28.704,105C28.549,105,28.395,105,28.241,105C28.086,105,27.932,105,27.778,105C27.623,105,27.469,105,27.315,105C27.16,105,27.006,105,26.852,105C26.698,105,26.543,105,26.389,105C26.235,105,26.08,105,25.926,105C25.772,105,25.617,105,25.463,105C25.309,105,25.154,105,25,105C24.846,105,24.691,105,24.537,105C24.383,105,24.228,105,24.074,105C23.92,105,23.765,105,23.611,105C23.457,105,23.302,105,23.148,105C22.994,105,22.84,105,22.685,105C22.531,105,22.377,105,22.222,105C22.068,105,21.914,105,21.759,105C21.605,105,21.451,105,21.296,105C21.142,105,20.988,105,20.833,105C20.679,105,20.525,105,20.37,105C20.216,105,20.062,105,19.907,105C19.753,105,19.599,105,19.444,105C19.29,105,19.136,105,18.981,105C18.827,105,18.673,105,18.519,105C18.364,105,18.21,105,18.056,105C17.901,105,17.747,105,17.593,105C17.438,105,17.284,105,17.13,105C16.975,105,16.821,105,16.667,105C16.512,105,16.358,105,16.204,105C16.049,105,15.895,105,15.741,105C15.586,105,15.432,105,15.278,105C15.123,105,14.969,105,14.815,105C14.66,105,14.506,105,14.352,105C14.198,105,14.043,105,13.889,105C13.735,105,13.58,105,13.426,105C13.272,105,13.117,105,12.963,105C12.809,105,12.654,105,12.5,105C12.346,105,12.191,105,12.037,105C11.883,105,11.728,105,11.574,105C11.42,105,11.265,105,11.111,105C10.957,105,10.802,105,10.648,105C10.494,105,10.34,105,10.185,105C10.031,105,9.877,105,9.722,105C9.568,105,9.414,105,9.259,105C9.105,105,8.951,105,8.796,105C8.642,105,8.488,105,8.333,105C8.179,105,8.025,105,7.87,105C7.716,105,7.562,105,7.407,105C7.253,105,7.099,105,6.944,105C6.79,105,6.636,105,6.481,105C6.327,105,6.173,105,6.019,105C5.864,105,5.71,105,5.556,105C5.401,105,5.247,105,5.093,105C4.938,105,4.784,105,4.63,105C4.475,105,4.321,105,4.167,105C4.012,105,3.858,105,3.704,105C3.549,105,3.395,105,3.241,105C3.086,105,2.932,105,2.778,105C2.623,105,2.469,105,2.315,105C2.16,105,2.006,105,1.852,105C1.698,105,1.543,105,1.389,105C1.235,105,1.08,105,0.926,105C0.772,105,0.617,105,0.463,105C0.309,105,0.154,105,0,105Z">
            </path>
            <path stroke="#CE9FFF" fill="none" stroke-width="1.2px" fill-opacity="0.6" width="250" height="85"
                class="recharts-curve recharts-area-curve"
                d="M0,104.488C0.154,104.336,0.309,104.184,0.463,104.184C0.617,104.184,0.772,104.184,0.926,104.184C1.08,104.184,1.235,104.03,1.389,104.03C1.543,104.03,1.698,104.03,1.852,104.03C2.006,104.03,2.16,104.03,2.315,104.03C2.469,104.03,2.623,104.295,2.778,104.295C2.932,104.295,3.086,104.093,3.241,104.003C3.395,103.913,3.549,103.755,3.704,103.755C3.858,103.755,4.012,103.927,4.167,104.014C4.321,104.1,4.475,104.213,4.63,104.273C4.784,104.332,4.938,104.372,5.093,104.372C5.247,104.372,5.401,104.168,5.556,104.168C5.71,104.168,5.864,105,6.019,105C6.173,105,6.327,104.713,6.481,104.713C6.636,104.713,6.79,104.713,6.944,104.713C7.099,104.713,7.253,104.702,7.407,104.68C7.562,104.658,7.716,96.244,7.87,94.812C8.025,93.379,8.179,92.663,8.333,92.663C8.488,92.663,8.642,92.751,8.796,92.751C8.951,92.751,9.105,92.751,9.259,92.751C9.414,92.751,9.568,92.525,9.722,92.073C9.877,91.621,10.031,90.308,10.185,89.985C10.34,89.662,10.494,89.5,10.648,89.5C10.802,89.5,10.957,91.186,11.111,91.186C11.265,91.186,11.42,91.186,11.574,91.186C11.728,91.186,11.883,90.68,12.037,90.426C12.191,90.171,12.346,89.66,12.5,89.66C12.654,89.66,12.809,89.717,12.963,89.831C13.117,89.944,13.272,91.271,13.426,91.506C13.58,91.741,13.735,91.858,13.889,91.858C14.043,91.858,14.198,91.858,14.352,91.858C14.506,91.858,14.66,91.737,14.815,91.737C14.969,91.737,15.123,97.635,15.278,97.848C15.432,98.061,15.586,98.048,15.741,98.167C15.895,98.287,16.049,98.436,16.204,98.564C16.358,98.693,16.512,98.862,16.667,98.939C16.821,99.016,16.975,99.055,17.13,99.055C17.284,99.055,17.438,99.055,17.593,99.055C17.747,99.055,17.901,99.016,18.056,98.939C18.21,98.862,18.364,98.558,18.519,98.118C18.673,97.678,18.827,97.035,18.981,96.299C19.136,95.564,19.29,95.434,19.444,93.704C19.599,91.974,19.753,84.684,19.907,84.684C20.062,84.684,20.216,88.563,20.37,88.563C20.525,88.563,20.679,86.381,20.833,86.381C20.988,86.381,21.142,86.396,21.296,86.425C21.451,86.455,21.605,86.723,21.759,86.723C21.914,86.723,22.068,86.568,22.222,86.568C22.377,86.568,22.531,86.568,22.685,86.568C22.84,86.568,22.994,86.31,23.148,85.792C23.302,85.274,23.457,72.126,23.611,68.176C23.765,64.225,23.92,62.087,24.074,62.087C24.228,62.087,24.383,67.663,24.537,69.283C24.691,70.903,24.846,71.109,25,71.807C25.154,72.505,25.309,73.012,25.463,73.471C25.617,73.93,25.772,74.094,25.926,74.562C26.08,75.029,26.235,76.275,26.389,76.275C26.543,76.275,26.698,58.891,26.852,58.891C27.006,58.891,27.16,60.022,27.315,61.398C27.469,62.774,27.623,65.745,27.778,67.145C27.932,68.546,28.086,68.714,28.241,69.801C28.395,70.888,28.549,72.726,28.704,73.669C28.858,74.612,29.012,75.46,29.167,75.46C29.321,75.46,29.475,73.55,29.63,72.606C29.784,71.662,29.938,71.669,30.093,69.796C30.247,67.922,30.401,57.811,30.556,57.811C30.71,57.811,30.864,60.88,31.019,60.88C31.173,60.88,31.327,53.524,31.481,53.524C31.636,53.524,31.79,54.924,31.944,54.924C32.099,54.924,32.253,51.93,32.407,51.408C32.562,50.886,32.716,50.626,32.87,50.626C33.025,50.626,33.179,62.946,33.333,62.946C33.488,62.946,33.642,61.426,33.796,60.963C33.951,60.5,34.105,60.413,34.259,60.169C34.414,59.926,34.568,59.947,34.722,59.503C34.877,59.058,35.031,49.568,35.185,49.568C35.34,49.568,35.494,51.744,35.648,51.744C35.802,51.744,35.957,38.098,36.111,32.877C36.265,27.657,36.42,20.419,36.574,20.419C36.728,20.419,36.883,21.451,37.037,23.516C37.191,25.58,37.346,37.021,37.5,37.021C37.654,37.021,37.809,34.317,37.963,33.924C38.117,33.531,38.272,33.335,38.426,33.335C38.58,33.335,38.735,46.219,38.889,47.424C39.043,48.629,39.198,48.368,39.352,49.232C39.506,50.095,39.66,52.604,39.815,52.604C39.969,52.604,40.123,51.867,40.278,50.394C40.432,48.921,40.586,43.608,40.741,42.961C40.895,42.315,41.049,42.37,41.204,41.991C41.358,41.613,41.512,40.691,41.667,40.691C41.821,40.691,41.975,46.488,42.13,46.488C42.284,46.488,42.438,46.256,42.593,46.256C42.747,46.256,42.901,46.256,43.056,46.256C43.21,46.256,43.364,40.537,43.519,40.239C43.673,39.941,43.827,39.793,43.981,39.793C44.136,39.793,44.29,39.875,44.444,40.041C44.599,40.206,44.753,41.163,44.907,41.716C45.062,42.269,45.216,43.358,45.37,43.358C45.525,43.358,45.679,42.25,45.833,42.25C45.988,42.25,46.142,42.928,46.296,42.928C46.451,42.928,46.605,42.388,46.759,42.388C46.914,42.388,47.068,42.388,47.222,42.388C47.377,42.388,47.531,42.36,47.685,42.36C47.84,42.36,47.994,45.121,48.148,45.121C48.302,45.121,48.457,43.746,48.611,43.248C48.765,42.749,48.92,42.129,49.074,42.129C49.228,42.129,49.383,42.135,49.537,42.14C49.691,42.146,49.846,42.162,50,42.162C50.154,42.162,50.309,42.162,50.463,42.162C50.617,42.162,50.772,42.808,50.926,43.567C51.08,44.327,51.235,44.934,51.389,46.719C51.543,48.504,51.698,54.279,51.852,54.279C52.006,54.279,52.16,52.923,52.315,52.923C52.469,52.923,52.623,53.041,52.778,53.276C52.932,53.511,53.086,58.582,53.241,58.582C53.395,58.582,53.549,57.669,53.704,57.243C53.858,56.818,54.012,56.512,54.167,56.031C54.321,55.55,54.475,54.356,54.63,54.356C54.784,54.356,54.938,55.131,55.093,56.681C55.247,58.232,55.401,65.409,55.556,69.112C55.71,72.815,55.864,78.255,56.019,78.898C56.173,79.541,56.327,79.694,56.481,79.863C56.636,80.032,56.79,80.116,56.944,80.116C57.099,80.116,57.253,79.44,57.407,78.766C57.562,78.092,57.716,76.072,57.87,76.072C58.025,76.072,58.179,77.322,58.333,77.322C58.488,77.322,58.642,77.144,58.796,77.025C58.951,76.905,59.105,76.606,59.259,76.606C59.414,76.606,59.568,76.606,59.722,76.606C59.877,76.606,60.031,77.3,60.185,77.3C60.34,77.3,60.494,75.991,60.648,75.73C60.802,75.469,60.957,75.6,61.111,75.339C61.265,75.078,61.42,73.245,61.574,73.245C61.728,73.245,61.883,73.691,62.037,73.691C62.191,73.691,62.346,73.691,62.5,73.691C62.654,73.691,62.809,73.546,62.963,73.542C63.117,73.539,63.272,73.541,63.426,73.537C63.58,73.533,63.735,73.48,63.889,73.366C64.043,73.252,64.198,72.356,64.352,71.961C64.506,71.566,64.66,70.997,64.815,70.997C64.969,70.997,65.123,71.443,65.278,71.443C65.432,71.443,65.586,70.189,65.741,69.807C65.895,69.425,66.049,69.588,66.204,69.151C66.358,68.714,66.512,66.857,66.667,65.938C66.821,65.02,66.975,63.688,67.13,63.641C67.284,63.593,67.438,63.569,67.593,63.569C67.747,63.569,67.901,63.569,68.056,63.569C68.21,63.569,68.364,63.336,68.519,62.869C68.673,62.403,68.827,52.753,68.981,52.753C69.136,52.753,69.29,53.204,69.444,53.204C69.599,53.204,69.753,52.918,69.907,52.918C70.062,52.918,70.216,53.067,70.37,53.067C70.525,53.067,70.679,53.067,70.833,53.067C70.988,53.067,71.142,52.503,71.296,52.191C71.451,51.878,71.605,51.594,71.759,51.193C71.914,50.793,72.068,49.788,72.222,49.788C72.377,49.788,72.531,50.361,72.685,50.361C72.84,50.361,72.994,50.361,73.148,50.361C73.302,50.361,73.457,51.32,73.611,51.32C73.765,51.32,73.92,51.006,74.074,50.714C74.228,50.422,74.383,49.568,74.537,49.568C74.691,49.568,74.846,49.942,75,49.942C75.154,49.942,75.309,49.188,75.463,49.055C75.617,48.923,75.772,48.857,75.926,48.857C76.08,48.857,76.235,48.982,76.389,49.232C76.543,49.481,76.698,53.612,76.852,54.02C77.006,54.428,77.16,54.379,77.315,54.632C77.469,54.884,77.623,55.291,77.778,55.535C77.932,55.78,78.086,56.097,78.241,56.097C78.395,56.097,78.549,56.097,78.704,56.097C78.858,56.097,79.012,55.922,79.167,55.717C79.321,55.512,79.475,54.869,79.63,54.869C79.784,54.869,79.938,55.462,80.093,56.648C80.247,57.835,80.401,63.646,80.556,63.812C80.71,63.977,80.864,64.059,81.019,64.059C81.173,64.059,81.327,64.059,81.481,64.059C81.636,64.059,81.79,63.658,81.944,63.486C82.099,63.315,82.253,63.334,82.407,63.029C82.562,62.724,82.716,58.678,82.87,58.659C83.025,58.641,83.179,58.632,83.333,58.632C83.488,58.632,83.642,58.654,83.796,58.654C83.951,58.654,84.105,58.103,84.259,58.103C84.414,58.103,84.568,60.197,84.722,60.197C84.877,60.197,85.031,57.381,85.185,57.381C85.34,57.381,85.494,57.411,85.648,57.469C85.802,57.528,85.957,57.96,86.111,57.96C86.265,57.96,86.42,57.932,86.574,57.932C86.728,57.932,86.883,57.958,87.037,57.982C87.191,58.006,87.346,58.013,87.5,58.075C87.654,58.138,87.809,58.335,87.963,58.759C88.117,59.182,88.272,60.128,88.426,60.616C88.58,61.103,88.735,60.972,88.889,61.685C89.043,62.397,89.198,63.429,89.352,64.897C89.506,66.365,89.66,69.096,89.815,70.495C89.969,71.895,90.123,73.294,90.278,73.294C90.432,73.294,90.586,72.644,90.741,72.644C90.895,72.644,91.049,79.605,91.204,80.392C91.358,81.178,91.512,81.571,91.667,81.571C91.821,81.571,91.975,80.558,92.13,79.295C92.284,78.032,92.438,75.319,92.593,73.994C92.747,72.67,92.901,71.401,93.056,71.349C93.21,71.298,93.364,71.272,93.519,71.272C93.673,71.272,93.827,71.355,93.981,71.355C94.136,71.355,94.29,71.239,94.444,71.239C94.599,71.239,94.753,72.152,94.907,72.683C95.062,73.214,95.216,73.856,95.37,74.424C95.525,74.993,95.679,74.981,95.833,76.094C95.988,77.207,96.142,80.634,96.296,82.1C96.451,83.565,96.605,84.888,96.759,84.888C96.914,84.888,97.068,84.315,97.222,83.676C97.377,83.036,97.531,81.053,97.685,81.053C97.84,81.053,97.994,84.756,98.148,85.571C98.302,86.387,98.457,86.794,98.611,86.794C98.765,86.794,98.92,86.794,99.074,86.794C99.228,86.794,99.383,87.009,99.537,87.439C99.691,87.869,99.846,89.478,100,89.478C100.154,89.478,100.309,89.381,100.463,89.291C100.617,89.2,100.772,89.124,100.926,88.932C101.08,88.74,101.235,88.139,101.389,88.139C101.543,88.139,101.698,88.337,101.852,88.337C102.006,88.337,102.16,87.924,102.315,87.924C102.469,87.924,102.623,87.924,102.778,87.924C102.932,87.924,103.086,88.507,103.241,88.778C103.395,89.049,103.549,89.362,103.704,89.549C103.858,89.737,104.012,89.829,104.167,89.902C104.321,89.976,104.475,90.012,104.63,90.012C104.784,90.012,104.938,89.99,105.093,89.99C105.247,89.99,105.401,90.229,105.556,90.266C105.71,90.303,105.864,90.291,106.019,90.321C106.173,90.351,106.327,90.448,106.481,90.448C106.636,90.448,106.79,90.078,106.944,90.078C107.099,90.078,107.253,90.078,107.407,90.078C107.562,90.078,107.716,89.435,107.87,89.224C108.025,89.014,108.179,88.93,108.333,88.817C108.488,88.704,108.642,88.611,108.796,88.547C108.951,88.482,109.105,88.431,109.259,88.431C109.414,88.431,109.568,89.175,109.722,89.175C109.877,89.175,110.031,88.196,110.185,87.472C110.34,86.748,110.494,85.116,110.648,84.833C110.802,84.55,110.957,84.409,111.111,84.409C111.265,84.409,111.42,84.491,111.574,84.491C111.728,84.491,111.883,84.482,112.037,84.464C112.191,84.445,112.346,84.353,112.5,84.353C112.654,84.353,112.809,84.353,112.963,84.353C113.117,84.353,113.272,84.353,113.426,84.353C113.58,84.353,113.735,84.243,113.889,84.023C114.043,83.802,114.198,82.827,114.352,82.827C114.506,82.827,114.66,85.092,114.815,85.092C114.969,85.092,115.123,84.756,115.278,84.585C115.432,84.414,115.586,84.067,115.741,84.067C115.895,84.067,116.049,84.208,116.204,84.491C116.358,84.774,116.512,89.164,116.667,89.164C116.821,89.164,116.975,87.792,117.13,87.604C117.284,87.417,117.438,87.47,117.593,87.323C117.747,87.176,117.901,87.015,118.056,86.723C118.21,86.431,118.364,85.833,118.519,85.571C118.673,85.309,118.827,85.27,118.981,85.152C119.136,85.035,119.29,84.937,119.444,84.866C119.599,84.794,119.753,84.723,119.907,84.723C120.062,84.723,120.216,85.26,120.37,85.566C120.525,85.871,120.679,86.557,120.833,86.557C120.988,86.557,121.142,85.755,121.296,85.483C121.451,85.211,121.605,84.926,121.759,84.926C121.914,84.926,122.068,86.42,122.222,86.42C122.377,86.42,122.531,85.303,122.685,85.252C122.84,85.2,122.994,85.174,123.148,85.174C123.302,85.174,123.457,85.812,123.611,86.001C123.765,86.19,123.92,86.22,124.074,86.31C124.228,86.4,124.383,86.541,124.537,86.541C124.691,86.541,124.846,86.095,125,86.095C125.154,86.095,125.309,86.161,125.463,86.161C125.617,86.161,125.772,86.161,125.926,86.161C126.08,86.161,126.235,85.946,126.389,85.946C126.543,85.946,126.698,86.084,126.852,86.359C127.006,86.635,127.16,89.324,127.315,89.324C127.469,89.324,127.623,89.324,127.778,89.324C127.932,89.324,128.086,88.954,128.241,88.954C128.395,88.954,128.549,91.446,128.704,92.431C128.858,93.417,129.012,94.867,129.167,94.867C129.321,94.867,129.475,81.854,129.63,81.516C129.784,81.178,129.938,81.347,130.093,81.009C130.247,80.671,130.401,77.992,130.556,76.882C130.71,75.771,130.864,75.083,131.019,74.347C131.173,73.611,131.327,72.78,131.481,72.468C131.636,72.156,131.79,72,131.944,72C132.099,72,132.253,72.462,132.407,72.462C132.562,72.462,132.716,72.33,132.87,72.33C133.025,72.33,133.179,72.53,133.333,72.661C133.488,72.791,133.642,73.113,133.796,73.113C133.951,73.113,134.105,72.784,134.259,72.556C134.414,72.328,134.568,71.746,134.722,71.746C134.877,71.746,135.031,72.248,135.185,72.248C135.34,72.248,135.494,72.231,135.648,72.231C135.802,72.231,135.957,72.446,136.111,72.446C136.265,72.446,136.42,72.446,136.574,72.446C136.728,72.446,136.883,72.446,137.037,72.446C137.191,72.446,137.346,70.831,137.5,67.602C137.654,64.374,137.809,42.873,137.963,42.873C138.117,42.873,138.272,45.314,138.426,45.314C138.58,45.314,138.735,44.956,138.889,44.956C139.043,44.956,139.198,45.389,139.352,46.256C139.506,47.123,139.66,49.986,139.815,51.425C139.969,52.863,140.123,54.316,140.278,54.885C140.432,55.454,140.586,55.684,140.741,55.739C140.895,55.794,141.049,55.767,141.204,55.822C141.358,55.877,141.512,57.574,141.667,57.574C141.821,57.574,141.975,57.216,142.13,57.216C142.284,57.216,142.438,59.548,142.593,59.739C142.747,59.931,142.901,60.026,143.056,60.026C143.21,60.026,143.364,59.607,143.519,59.607C143.673,59.607,143.827,59.712,143.981,59.883C144.136,60.054,144.29,60.324,144.444,60.632C144.599,60.94,144.753,61.729,144.907,61.729C145.062,61.729,145.216,61.222,145.37,61.222C145.525,61.222,145.679,61.389,145.833,61.723C145.988,62.057,146.142,64.908,146.296,64.908C146.451,64.908,146.605,64.61,146.759,64.61C146.914,64.61,147.068,64.61,147.222,64.61C147.377,64.61,147.531,64.655,147.685,64.655C147.84,64.655,147.994,64.655,148.148,64.655C148.302,64.655,148.457,64.274,148.611,64.175C148.765,64.076,148.92,64.125,149.074,64.026C149.228,63.928,149.383,63.586,149.537,63.586C149.691,63.586,149.846,63.586,150,63.586C150.154,63.586,150.309,63.586,150.463,63.586C150.617,63.586,150.772,64.087,150.926,64.087C151.08,64.087,151.235,64.087,151.389,64.087C151.543,64.087,151.698,64.087,151.852,64.087C152.006,64.087,152.16,64.175,152.315,64.175C152.469,64.175,152.623,64.175,152.778,64.175C152.932,64.175,153.086,64.175,153.241,64.175C153.395,64.175,153.549,63.955,153.704,63.955C153.858,63.955,154.012,64.159,154.167,64.159C154.321,64.159,154.475,64.159,154.63,64.159C154.784,64.159,154.938,64.199,155.093,64.28C155.247,64.361,155.401,67.029,155.556,67.029C155.71,67.029,155.864,67.029,156.019,67.029C156.173,67.029,156.327,67.525,156.481,67.525C156.636,67.525,156.79,67.366,156.944,67.366C157.099,67.366,157.253,67.382,157.407,67.415C157.562,67.448,157.716,68.897,157.87,68.897C158.025,68.897,158.179,68.192,158.333,68.192C158.488,68.192,158.642,68.192,158.796,68.192C158.951,68.192,159.105,69.002,159.259,69.002C159.414,69.002,159.568,68.616,159.722,68.616C159.877,68.616,160.031,68.616,160.185,68.616C160.34,68.616,160.494,68.226,160.648,68.06C160.802,67.894,160.957,67.619,161.111,67.619C161.265,67.619,161.42,68.087,161.574,68.087C161.728,68.087,161.883,68.087,162.037,68.087C162.191,68.087,162.346,68.247,162.5,68.567C162.654,68.886,162.809,71.002,162.963,71.002C163.117,71.002,163.272,70.517,163.426,70.517C163.58,70.517,163.735,70.644,163.889,70.644C164.043,70.644,164.198,70.644,164.352,70.644C164.506,70.644,164.66,70.644,164.815,70.644C164.969,70.644,165.123,69.283,165.278,69.063C165.432,68.842,165.586,68.732,165.741,68.732C165.895,68.732,166.049,69.195,166.204,69.195C166.358,69.195,166.512,69.195,166.667,69.195C166.821,69.195,166.975,68.99,167.13,68.82C167.284,68.65,167.438,68.359,167.593,68.176C167.747,67.992,167.901,67.744,168.056,67.718C168.21,67.692,168.364,67.68,168.519,67.68C168.673,67.68,168.827,68.057,168.981,68.225C169.136,68.393,169.29,68.523,169.444,68.688C169.599,68.853,169.753,68.864,169.907,69.217C170.062,69.57,170.216,73.746,170.37,73.746C170.525,73.746,170.679,73.746,170.833,73.746C170.988,73.746,171.142,74.319,171.296,74.319C171.451,74.319,171.605,74.284,171.759,74.248C171.914,74.212,172.068,74.104,172.222,74.104C172.377,74.104,172.531,74.104,172.685,74.104C172.84,74.104,172.994,73.89,173.148,73.89C173.302,73.89,173.457,73.937,173.611,74.033C173.765,74.128,173.92,75.306,174.074,75.306C174.228,75.306,174.383,75.3,174.537,75.289C174.691,75.278,174.846,74.76,175,74.76C175.154,74.76,175.309,74.76,175.463,74.76C175.617,74.76,175.772,74.972,175.926,75.041C176.08,75.11,176.235,75.109,176.389,75.173C176.543,75.238,176.698,75.305,176.852,75.427C177.006,75.549,177.16,75.884,177.315,75.906C177.469,75.928,177.623,75.917,177.778,75.939C177.932,75.961,178.086,76.689,178.241,76.689C178.395,76.689,178.549,76.689,178.704,76.689C178.858,76.689,179.012,76.485,179.167,76.485C179.321,76.485,179.475,76.485,179.63,76.485C179.784,76.485,179.938,76.485,180.093,76.485C180.247,76.485,180.401,80.662,180.556,80.662C180.71,80.662,180.864,80.662,181.019,80.662C181.173,80.662,181.327,80.706,181.481,80.794C181.636,80.882,181.79,84.684,181.944,84.783C182.099,84.882,182.253,84.932,182.407,84.932C182.562,84.932,182.716,84.932,182.87,84.932C183.025,84.932,183.179,84.932,183.333,84.932C183.488,84.932,183.642,84.368,183.796,84.353C183.951,84.339,184.105,84.346,184.259,84.331C184.414,84.317,184.568,83.918,184.722,83.918C184.877,83.918,185.031,84.425,185.185,84.425C185.34,84.425,185.494,84.425,185.648,84.425C185.802,84.425,185.957,83.654,186.111,83.654C186.265,83.654,186.42,83.742,186.574,83.742C186.728,83.742,186.883,83.742,187.037,83.742C187.191,83.742,187.346,83.742,187.5,83.742C187.654,83.742,187.809,83.902,187.963,83.902C188.117,83.902,188.272,83.902,188.426,83.902C188.58,83.902,188.735,83.902,188.889,83.902C189.043,83.902,189.198,83.902,189.352,83.902C189.506,83.902,189.66,83.621,189.815,83.621C189.969,83.621,190.123,83.621,190.278,83.621C190.432,83.621,190.586,83.621,190.741,83.621C190.895,83.621,191.049,83.659,191.204,83.736C191.358,83.813,191.512,84.1,191.667,84.1C191.821,84.1,191.975,84.1,192.13,84.1C192.284,84.1,192.438,84.017,192.593,84.017C192.747,84.017,192.901,84.017,193.056,84.017C193.21,84.017,193.364,83.637,193.519,83.637C193.673,83.637,193.827,83.637,193.981,83.637C194.136,83.637,194.29,84.028,194.444,84.028C194.599,84.028,194.753,83.681,194.907,83.681C195.062,83.681,195.216,83.698,195.37,83.731C195.525,83.764,195.679,89.864,195.833,90.282C195.988,90.701,196.142,90.911,196.296,90.911C196.451,90.911,196.605,90.563,196.759,90.563C196.914,90.563,197.068,91.979,197.222,91.979C197.377,91.979,197.531,91.959,197.685,91.919C197.84,91.878,197.994,91.686,198.148,91.555C198.302,91.425,198.457,91.416,198.611,91.136C198.765,90.857,198.92,88.299,199.074,87.902C199.228,87.505,199.383,87.307,199.537,87.307C199.691,87.307,199.846,88.585,200,88.585C200.154,88.585,200.309,88.585,200.463,88.585C200.617,88.585,200.772,86.422,200.926,85.141C201.08,83.86,201.235,80.899,201.389,80.899C201.543,80.899,201.698,81.312,201.852,81.312C202.006,81.312,202.16,81.312,202.315,81.312C202.469,81.312,202.623,81.011,202.778,80.86C202.932,80.708,203.086,80.403,203.241,80.403C203.395,80.403,203.549,80.403,203.704,80.403C203.858,80.403,204.012,80.739,204.167,80.739C204.321,80.739,204.475,75.245,204.63,75.245C204.784,75.245,204.938,75.62,205.093,75.62C205.247,75.62,205.401,75.62,205.556,75.62C205.71,75.62,205.864,75.787,206.019,76.121C206.173,76.455,206.327,78.711,206.481,78.711C206.636,78.711,206.79,78.711,206.944,78.711C207.099,78.711,207.253,79.365,207.407,79.951C207.562,80.537,207.716,82.226,207.87,82.226C208.025,82.226,208.179,82.226,208.333,82.226C208.488,82.226,208.642,82.386,208.796,82.386C208.951,82.386,209.105,82.386,209.259,82.386C209.414,82.386,209.568,82.386,209.722,82.386C209.877,82.386,210.031,82.039,210.185,82.039C210.34,82.039,210.494,82.039,210.648,82.039C210.802,82.039,210.957,82.175,211.111,82.447C211.265,82.719,211.42,83.863,211.574,84.42C211.728,84.976,211.883,85.786,212.037,85.786C212.191,85.786,212.346,84.151,212.5,84.1C212.654,84.049,212.809,84.023,212.963,84.023C213.117,84.023,213.272,84.023,213.426,84.023C213.58,84.023,213.735,81.448,213.889,81.444C214.043,81.44,214.198,81.439,214.352,81.439C214.506,81.439,214.66,81.442,214.815,81.45C214.969,81.457,215.123,81.709,215.278,81.709C215.432,81.709,215.586,81.709,215.741,81.709C215.895,81.709,216.049,81.709,216.204,81.709C216.358,81.709,216.512,81.224,216.667,80.254C216.821,79.284,216.975,70.049,217.13,70.049C217.284,70.049,217.438,70.049,217.593,70.049C217.747,70.049,217.901,70.049,218.056,70.049C218.21,70.049,218.364,69.605,218.519,69.597C218.673,69.59,218.827,69.594,218.981,69.586C219.136,69.579,219.29,69.118,219.444,69.118C219.599,69.118,219.753,69.245,219.907,69.245C220.062,69.245,220.216,68.988,220.37,68.589C220.525,68.189,220.679,66.848,220.833,66.848C220.988,66.848,221.142,66.859,221.296,66.859C221.451,66.859,221.605,66.859,221.759,66.859C221.914,66.859,222.068,66.859,222.222,66.859C222.377,66.859,222.531,69.75,222.685,70.341C222.84,70.932,222.994,71.006,223.148,71.228C223.302,71.45,223.457,71.675,223.611,71.675C223.765,71.675,223.92,71.675,224.074,71.675C224.228,71.675,224.383,71.416,224.537,71.416C224.691,71.416,224.846,71.443,225,71.443C225.154,71.443,225.309,71.443,225.463,71.443C225.617,71.443,225.772,71.498,225.926,71.498C226.08,71.498,226.235,71.498,226.389,71.498C226.543,71.498,226.698,71.686,226.852,71.686C227.006,71.686,227.16,71.686,227.315,71.686C227.469,71.686,227.623,71.564,227.778,71.564C227.932,71.564,228.086,71.564,228.241,71.564C228.395,71.564,228.549,71.564,228.704,71.564C228.858,71.564,229.012,71.548,229.167,71.548C229.321,71.548,229.475,71.548,229.63,71.548C229.784,71.548,229.938,71.548,230.093,71.548C230.247,71.548,230.401,71.68,230.556,71.68C230.71,71.68,230.864,71.68,231.019,71.68C231.173,71.68,231.327,71.68,231.481,71.68C231.636,71.68,231.79,71.603,231.944,71.603C232.099,71.603,232.253,71.603,232.407,71.603C232.562,71.603,232.716,72.055,232.87,72.055C233.025,72.055,233.179,72.055,233.333,72.055C233.488,72.055,233.642,72.203,233.796,72.203C233.951,72.203,234.105,71.812,234.259,71.812C234.414,71.812,234.568,71.812,234.722,71.812C234.877,71.812,235.031,71.765,235.185,71.669C235.34,71.573,235.494,70.876,235.648,70.876C235.802,70.876,235.957,70.876,236.111,70.876C236.265,70.876,236.42,70.539,236.574,70.539C236.728,70.539,236.883,70.539,237.037,70.539C237.191,70.539,237.346,70.539,237.5,70.539C237.654,70.539,237.809,74.72,237.963,74.97C238.117,75.219,238.272,75.344,238.426,75.344C238.58,75.344,238.735,75.344,238.889,75.344C239.043,75.344,239.198,76.489,239.352,76.937C239.506,77.385,239.66,78.033,239.815,78.033C239.969,78.033,240.123,77.903,240.278,77.835C240.432,77.767,240.586,77.67,240.741,77.625C240.895,77.581,241.049,77.559,241.204,77.559C241.358,77.559,241.512,77.559,241.667,77.559C241.821,77.559,241.975,77.559,242.13,77.559C242.284,77.559,242.438,77.648,242.593,77.648C242.747,77.648,242.901,77.648,243.056,77.648C243.21,77.648,243.364,77.648,243.519,77.648C243.673,77.648,243.827,77.493,243.981,77.493C244.136,77.493,244.29,77.493,244.444,77.493C244.599,77.493,244.753,77.493,244.907,77.493C245.062,77.493,245.216,77.42,245.37,77.273C245.525,77.126,245.679,74.064,245.833,73.664C245.988,73.263,246.142,73.207,246.296,73.063C246.451,72.919,246.605,72.799,246.759,72.799C246.914,72.799,247.068,74.167,247.222,75.096C247.377,76.026,247.531,78.375,247.685,78.375C247.84,78.375,247.994,78.375,248.148,78.375C248.302,78.375,248.457,76.309,248.611,75.691C248.765,75.074,248.92,75.352,249.074,74.672C249.228,73.992,249.383,63.201,249.537,59.8C249.691,56.399,249.846,55.334,250,54.268">
            </path>
        </g>
        <g class="recharts-layer recharts-area-dots"></g>
    </g>
</svg>